<?xml version="1.0" encoding="utf-8"?>
<!-- Generator: Adobe Illustrator 21.0.0, SVG Export Plug-In . SVG Version: 6.00 Build 0)  -->
<svg version="1.1" id="Capa_1" xmlns="http://www.w3.org/2000/svg" xmlns:xlink="http://www.w3.org/1999/xlink" x="0px" y="0px"
	 viewBox="0 0 36.4 33.5" style="enable-background:new 0 0 36.4 33.5;" xml:space="preserve">
<style type="text/css">
	.st0{fill:#F6F6F6;}
	.st1{fill:#F29100;}
	.st2{fill:#DADADA;}
	.st3{fill:#EA5B0C;}
	.st4{fill:#FFFFFF;}
	.st5{fill:#706F6F;}
	.st6{fill:#EDEDED;}
	.st7{fill:#F28321;}
	.st8{fill:#B2B2B2;}
	.st9{fill:url(#SVGID_1_);}
	.st10{opacity:0.4;fill:#EA5B0C;}
	.st11{fill:#606060;}
	.st12{fill:none;}
	.st13{fill:#808080;}
	.st14{fill:#FFFFFF;stroke:#000000;stroke-miterlimit:10;}
	.st15{fill:#9D9D9C;}
	.st16{fill:none;stroke:#1D1D1B;stroke-width:0.25;stroke-miterlimit:10;}
	.st17{fill:none;stroke:#FFFFFF;stroke-miterlimit:10;}
	.st18{fill:#DADADA;stroke:#878787;stroke-miterlimit:10;}
	.st19{fill:none;stroke:#C6C6C6;stroke-miterlimit:10;}
	.st20{fill:none;stroke:#B2B2B2;stroke-miterlimit:10;}
	.st21{clip-path:url(#SVGID_3_);}
	.st22{fill:#B4707B;}
	.st23{fill:url(#SVGID_4_);}
	.st24{fill:url(#SVGID_5_);}
	.st25{clip-path:url(#SVGID_7_);}
	.st26{fill:#312783;}
	.st27{clip-path:url(#SVGID_9_);}
	.st28{fill:#FCEA10;}
	.st29{fill:url(#SVGID_10_);}
	.st30{opacity:0.5;fill:#EA5B0C;}
	.st31{clip-path:url(#SVGID_12_);}
	.st32{fill:#3AAA35;}
	.st33{clip-path:url(#SVGID_14_);}
	.st34{clip-path:url(#SVGID_16_);}
	.st35{clip-path:url(#SVGID_18_);}
	.st36{clip-path:url(#SVGID_20_);}
	.st37{clip-path:url(#SVGID_22_);}
	.st38{clip-path:url(#SVGID_24_);}
	.st39{clip-path:url(#SVGID_26_);}
	.st40{clip-path:url(#SVGID_28_);}
	.st41{clip-path:url(#SVGID_30_);}
	.st42{clip-path:url(#SVGID_32_);}
	.st43{clip-path:url(#SVGID_34_);}
	.st44{clip-path:url(#SVGID_36_);}
	.st45{clip-path:url(#SVGID_38_);}
	.st46{clip-path:url(#SVGID_40_);}
	.st47{clip-path:url(#SVGID_42_);}
	.st48{clip-path:url(#SVGID_44_);}
	.st49{fill:url(#SVGID_47_);}
	.st50{clip-path:url(#SVGID_49_);}
	.st51{opacity:0.5;}
	.st52{fill:none;stroke:#F39200;stroke-miterlimit:10;}
	.st53{fill:none;stroke:url(#SVGID_50_);stroke-miterlimit:10;}
	.st54{fill:none;stroke:#F29100;stroke-miterlimit:10;}
	.st55{fill:#FFFFFF;stroke:#706F6F;stroke-miterlimit:10;}
	.st56{clip-path:url(#SVGID_52_);}
	.st57{clip-path:url(#SVGID_54_);}
	.st58{clip-path:url(#SVGID_56_);}
	.st59{clip-path:url(#SVGID_58_);}
	.st60{clip-path:url(#SVGID_60_);}
	.st61{clip-path:url(#SVGID_62_);}
	.st62{clip-path:url(#SVGID_64_);}
	.st63{clip-path:url(#SVGID_66_);}
	.st64{clip-path:url(#SVGID_68_);}
	.st65{clip-path:url(#SVGID_70_);}
	.st66{fill:#EDEDED;stroke:#878787;stroke-miterlimit:10;}
	.st67{clip-path:url(#SVGID_72_);}
	.st68{clip-path:url(#SVGID_74_);}
	.st69{fill:#95C11F;}
	.st70{fill:#009640;}
	.st71{fill:#E6007E;}
	.st72{fill:#7D4E24;}
	.st73{clip-path:url(#SVGID_76_);}
	.st74{clip-path:url(#SVGID_78_);}
	.st75{clip-path:url(#SVGID_80_);}
	.st76{clip-path:url(#SVGID_82_);}
	.st77{clip-path:url(#SVGID_84_);}
	.st78{clip-path:url(#SVGID_86_);}
	.st79{clip-path:url(#SVGID_88_);}
	.st80{clip-path:url(#SVGID_90_);}
	.st81{clip-path:url(#SVGID_92_);}
	.st82{fill:url(#SVGID_93_);}
	.st83{clip-path:url(#SVGID_95_);}
	.st84{clip-path:url(#SVGID_97_);}
	.st85{clip-path:url(#SVGID_99_);}
	.st86{clip-path:url(#SVGID_101_);}
	.st87{clip-path:url(#SVGID_103_);}
	.st88{clip-path:url(#SVGID_105_);}
	.st89{clip-path:url(#SVGID_107_);}
	.st90{clip-path:url(#SVGID_109_);}
	.st91{clip-path:url(#SVGID_111_);}
	.st92{clip-path:url(#SVGID_113_);}
	.st93{clip-path:url(#SVGID_115_);}
	.st94{clip-path:url(#SVGID_117_);}
	.st95{fill:url(#SVGID_118_);}
	.st96{fill:#CB3B29;}
	.st97{fill:none;stroke:#FFFFFF;stroke-width:0.25;stroke-miterlimit:10;}
	.st98{opacity:0.7;}
	.st99{fill:none;stroke:#1D1D1B;stroke-width:2;stroke-miterlimit:10;}
	.st100{fill:none;stroke:#000000;stroke-width:2;stroke-miterlimit:10;}
	.st101{fill:none;stroke:#000000;stroke-miterlimit:10;}
	.st102{fill:url(#SVGID_119_);}
	.st103{fill:url(#SVGID_120_);}
	.st104{fill:url(#SVGID_121_);}
	.st105{clip-path:url(#SVGID_123_);}
	.st106{clip-path:url(#SVGID_125_);}
	.st107{fill:#EA5B0C;stroke:#EA5B0C;stroke-miterlimit:10;}
	.st108{clip-path:url(#SVGID_127_);}
	.st109{clip-path:url(#SVGID_129_);}
	.st110{clip-path:url(#SVGID_131_);}
	.st111{clip-path:url(#SVGID_133_);}
	.st112{clip-path:url(#SVGID_135_);}
	.st113{clip-path:url(#SVGID_137_);}
	.st114{fill:#878787;}
	.st115{clip-path:url(#SVGID_139_);}
	.st116{clip-path:url(#SVGID_141_);}
	.st117{clip-path:url(#SVGID_143_);}
	.st118{clip-path:url(#SVGID_145_);}
	.st119{clip-path:url(#SVGID_147_);}
	.st120{clip-path:url(#SVGID_149_);}
	.st121{clip-path:url(#SVGID_155_);}
	.st122{fill:#FFFFFF;stroke:#FFFFFF;stroke-miterlimit:10;}
	.st123{fill:#535353;}
	.st124{fill:#F9B233;}
	.st125{fill:none;stroke:#F9B233;stroke-miterlimit:10;}
	.st126{clip-path:url(#SVGID_157_);}
	.st127{clip-path:url(#SVGID_159_);}
	.st128{clip-path:url(#SVGID_161_);}
	.st129{clip-path:url(#SVGID_163_);}
	.st130{clip-path:url(#SVGID_165_);}
	.st131{clip-path:url(#SVGID_167_);}
	.st132{clip-path:url(#SVGID_169_);}
	.st133{clip-path:url(#SVGID_171_);}
	.st134{fill:url(#SVGID_172_);}
	.st135{clip-path:url(#SVGID_178_);}
	.st136{clip-path:url(#SVGID_182_);}
	.st137{fill:url(#SVGID_183_);}
	.st138{fill:url(#SVGID_184_);}
	.st139{stroke:#000000;stroke-miterlimit:10;}
	.st140{clip-path:url(#SVGID_186_);}
	.st141{clip-path:url(#SVGID_188_);}
	.st142{clip-path:url(#SVGID_190_);}
	.st143{clip-path:url(#SVGID_192_);}
	.st144{clip-path:url(#SVGID_194_);}
	.st145{clip-path:url(#SVGID_196_);}
	.st146{clip-path:url(#SVGID_198_);}
	.st147{clip-path:url(#SVGID_200_);}
	.st148{clip-path:url(#SVGID_202_);}
	.st149{clip-path:url(#SVGID_204_);}
	.st150{clip-path:url(#SVGID_206_);}
	.st151{clip-path:url(#SVGID_208_);}
	.st152{fill:#F39200;}
	.st153{fill:none;stroke:url(#SVGID_209_);stroke-miterlimit:10;}
	.st154{fill:#F6F6F6;stroke:#EA5B0C;stroke-miterlimit:10;}
	.st155{fill:#F6F6F6;stroke:#878787;stroke-miterlimit:10;}
	.st156{fill:#575756;}
	.st157{fill:none;stroke:#EA5B0C;stroke-width:0.75;stroke-miterlimit:10;}
</style>
<path class="st3" d="M26.8,16.8c0-3.9,0-7.8,0-11.7C26.8,3.7,26,3,24.7,3c-3.9,0-7.9,0-11.8,0c-1.4,0-2.1,0.7-2.1,2.1
	c0,7.8,0,15.5,0,23.3c0,0.2,0,0.5,0.1,0.7c0.2,0.9,0.9,1.4,1.9,1.4c2.4,0,4.9,0,7.3,0c1.6,0,3.1,0,4.7,0c0.5,0,0.9-0.1,1.2-0.4
	c0.6-0.4,0.8-1,0.8-1.7C26.8,24.5,26.8,20.6,26.8,16.8z M17,4.3c1.2,0,2.4,0,3.6,0c0.2,0,0.4,0,0.4,0.2c0,0.1-0.2,0.2-0.4,0.2
	c-0.6,0-1.2,0-1.8,0c-0.6,0-1.2,0-1.8,0c-0.2,0-0.4,0-0.4-0.3C16.6,4.3,16.8,4.3,17,4.3z M18.8,29.6c-0.5,0-0.9-0.4-0.9-0.9
	c0-0.5,0.4-0.9,0.9-0.9c0.5,0,0.9,0.4,0.9,0.9C19.7,29.1,19.3,29.6,18.8,29.6z M25.1,27.1c-4.2,0-8.4,0-12.6,0c-0.1,0-0.2,0-0.4,0
	c0-7.1,0-14.1,0-21.1c0.1,0,0.2,0,0.4,0c4.2,0,8.4,0,12.7,0c0.3,0,0.4,0.1,0.4,0.4c0,6.8,0,13.6,0,20.4C25.5,27,25.4,27.1,25.1,27.1
	z"/>
</svg>
