<?xml version="1.0" encoding="utf-8"?>
<!-- Generator: Adobe Illustrator 21.0.0, SVG Export Plug-In . SVG Version: 6.00 Build 0)  -->
<svg version="1.1" id="Capa_1" xmlns="http://www.w3.org/2000/svg" xmlns:xlink="http://www.w3.org/1999/xlink" x="0px" y="0px"
	 viewBox="0 0 1061 108" style="enable-background:new 0 0 1061 108;" xml:space="preserve">
<style type="text/css">
	.st0{fill:#F6F6F6;}
	.st1{fill:#FFFFFF;stroke:#706F6F;stroke-width:0.5;stroke-miterlimit:10;}
	.st2{fill:#F29100;}
	.st3{fill:#DADADA;}
	.st4{fill:#EA5B0C;}
	.st5{fill:#FFFFFF;}
	.st6{fill:#706F6F;}
	.st7{fill:#EDEDED;}
	.st8{fill:#F28321;}
	.st9{fill:#B2B2B2;}
	.st10{fill:url(#SVGID_1_);}
	.st11{opacity:0.4;fill:#EA5B0C;}
	.st12{fill:#606060;}
	.st13{fill:none;}
	.st14{fill:#808080;}
	.st15{fill:#FFFFFF;stroke:#000000;stroke-miterlimit:10;}
	.st16{fill:#9D9D9C;}
	.st17{fill:none;stroke:#1D1D1B;stroke-width:0.25;stroke-miterlimit:10;}
	.st18{fill:none;stroke:#FFFFFF;stroke-miterlimit:10;}
	.st19{fill:#DADADA;stroke:#878787;stroke-miterlimit:10;}
	.st20{fill:none;stroke:#C6C6C6;stroke-miterlimit:10;}
	.st21{fill:none;stroke:#B2B2B2;stroke-miterlimit:10;}
	.st22{clip-path:url(#SVGID_3_);}
	.st23{fill:#B4707B;}
	.st24{fill:url(#SVGID_4_);}
	.st25{fill:url(#SVGID_5_);}
	.st26{clip-path:url(#SVGID_7_);}
	.st27{fill:#312783;}
	.st28{clip-path:url(#SVGID_9_);}
	.st29{fill:#FCEA10;}
	.st30{fill:url(#SVGID_10_);}
	.st31{opacity:0.5;fill:#EA5B0C;}
	.st32{clip-path:url(#SVGID_12_);}
	.st33{fill:#3AAA35;}
	.st34{clip-path:url(#SVGID_14_);}
	.st35{clip-path:url(#SVGID_16_);}
	.st36{clip-path:url(#SVGID_18_);}
	.st37{clip-path:url(#SVGID_20_);}
	.st38{clip-path:url(#SVGID_22_);}
	.st39{clip-path:url(#SVGID_24_);}
	.st40{clip-path:url(#SVGID_26_);}
	.st41{clip-path:url(#SVGID_28_);}
	.st42{clip-path:url(#SVGID_30_);}
	.st43{clip-path:url(#SVGID_32_);}
	.st44{clip-path:url(#SVGID_34_);}
	.st45{clip-path:url(#SVGID_36_);}
	.st46{clip-path:url(#SVGID_38_);}
	.st47{clip-path:url(#SVGID_40_);}
	.st48{clip-path:url(#SVGID_42_);}
	.st49{clip-path:url(#SVGID_44_);}
	.st50{fill:url(#SVGID_47_);}
	.st51{clip-path:url(#SVGID_49_);}
	.st52{opacity:0.5;}
	.st53{fill:none;stroke:#F39200;stroke-miterlimit:10;}
	.st54{fill:none;stroke:url(#SVGID_50_);stroke-miterlimit:10;}
	.st55{fill:none;stroke:#F29100;stroke-miterlimit:10;}
	.st56{fill:#FFFFFF;stroke:#706F6F;stroke-miterlimit:10;}
	.st57{clip-path:url(#SVGID_52_);}
	.st58{clip-path:url(#SVGID_54_);}
	.st59{clip-path:url(#SVGID_56_);}
	.st60{clip-path:url(#SVGID_58_);}
	.st61{clip-path:url(#SVGID_60_);}
	.st62{clip-path:url(#SVGID_62_);}
	.st63{clip-path:url(#SVGID_64_);}
	.st64{clip-path:url(#SVGID_66_);}
	.st65{clip-path:url(#SVGID_68_);}
	.st66{clip-path:url(#SVGID_70_);}
	.st67{fill:#EDEDED;stroke:#878787;stroke-miterlimit:10;}
	.st68{clip-path:url(#SVGID_72_);}
	.st69{clip-path:url(#SVGID_74_);}
	.st70{fill:#95C11F;}
	.st71{fill:#009640;}
	.st72{fill:#E6007E;}
	.st73{fill:#7D4E24;}
	.st74{clip-path:url(#SVGID_76_);}
	.st75{clip-path:url(#SVGID_78_);}
	.st76{clip-path:url(#SVGID_80_);}
	.st77{clip-path:url(#SVGID_82_);}
	.st78{clip-path:url(#SVGID_84_);}
	.st79{clip-path:url(#SVGID_86_);}
	.st80{clip-path:url(#SVGID_88_);}
	.st81{clip-path:url(#SVGID_90_);}
	.st82{clip-path:url(#SVGID_92_);}
	.st83{fill:url(#SVGID_93_);}
	.st84{clip-path:url(#SVGID_95_);}
	.st85{clip-path:url(#SVGID_97_);}
	.st86{clip-path:url(#SVGID_99_);}
	.st87{clip-path:url(#SVGID_101_);}
	.st88{clip-path:url(#SVGID_103_);}
	.st89{clip-path:url(#SVGID_105_);}
	.st90{clip-path:url(#SVGID_107_);}
	.st91{clip-path:url(#SVGID_109_);}
	.st92{clip-path:url(#SVGID_111_);}
	.st93{clip-path:url(#SVGID_113_);}
	.st94{clip-path:url(#SVGID_115_);}
	.st95{clip-path:url(#SVGID_117_);}
	.st96{fill:url(#SVGID_118_);}
	.st97{fill:#CB3B29;}
	.st98{fill:none;stroke:#FFFFFF;stroke-width:0.25;stroke-miterlimit:10;}
	.st99{opacity:0.7;}
	.st100{fill:none;stroke:#1D1D1B;stroke-width:2;stroke-miterlimit:10;}
	.st101{fill:none;stroke:#000000;stroke-width:2;stroke-miterlimit:10;}
	.st102{fill:none;stroke:#000000;stroke-miterlimit:10;}
	.st103{fill:url(#SVGID_119_);}
	.st104{fill:url(#SVGID_120_);}
	.st105{fill:url(#SVGID_121_);}
	.st106{clip-path:url(#SVGID_123_);}
	.st107{clip-path:url(#SVGID_125_);}
	.st108{fill:#EA5B0C;stroke:#EA5B0C;stroke-miterlimit:10;}
	.st109{clip-path:url(#SVGID_127_);}
	.st110{clip-path:url(#SVGID_129_);}
	.st111{clip-path:url(#SVGID_131_);}
	.st112{clip-path:url(#SVGID_133_);}
	.st113{clip-path:url(#SVGID_135_);}
	.st114{clip-path:url(#SVGID_137_);}
	.st115{fill:#878787;}
	.st116{clip-path:url(#SVGID_139_);}
	.st117{clip-path:url(#SVGID_141_);}
	.st118{clip-path:url(#SVGID_143_);}
	.st119{clip-path:url(#SVGID_145_);}
	.st120{clip-path:url(#SVGID_147_);}
	.st121{clip-path:url(#SVGID_149_);}
	.st122{clip-path:url(#SVGID_155_);}
	.st123{fill:#FFFFFF;stroke:#FFFFFF;stroke-miterlimit:10;}
	.st124{fill:#535353;}
	.st125{fill:#F9B233;}
	.st126{fill:none;stroke:#F9B233;stroke-miterlimit:10;}
	.st127{clip-path:url(#SVGID_157_);}
	.st128{clip-path:url(#SVGID_159_);}
	.st129{clip-path:url(#SVGID_161_);}
	.st130{clip-path:url(#SVGID_163_);}
	.st131{clip-path:url(#SVGID_165_);}
	.st132{clip-path:url(#SVGID_167_);}
	.st133{clip-path:url(#SVGID_169_);}
	.st134{clip-path:url(#SVGID_171_);}
	.st135{fill:url(#SVGID_172_);}
	.st136{clip-path:url(#SVGID_178_);}
	.st137{clip-path:url(#SVGID_182_);}
	.st138{fill:url(#SVGID_183_);}
	.st139{fill:url(#SVGID_184_);}
	.st140{stroke:#000000;stroke-miterlimit:10;}
	.st141{clip-path:url(#SVGID_186_);}
	.st142{clip-path:url(#SVGID_188_);}
	.st143{clip-path:url(#SVGID_190_);}
	.st144{clip-path:url(#SVGID_192_);}
	.st145{clip-path:url(#SVGID_194_);}
	.st146{clip-path:url(#SVGID_196_);}
	.st147{clip-path:url(#SVGID_198_);}
	.st148{clip-path:url(#SVGID_200_);}
	.st149{clip-path:url(#SVGID_202_);}
	.st150{clip-path:url(#SVGID_204_);}
	.st151{clip-path:url(#SVGID_206_);}
	.st152{clip-path:url(#SVGID_208_);}
	.st153{fill:#F39200;}
	.st154{fill:none;stroke:url(#SVGID_209_);stroke-miterlimit:10;}
	.st155{fill:#FFFFFF;stroke:#9D9D9C;stroke-width:0.75;stroke-miterlimit:10;}
	.st156{fill:#575756;}
	.st157{fill:none;stroke:#EA5B0C;stroke-width:0.75;stroke-miterlimit:10;}
	.st158{fill:#F29100;stroke:#F29100;stroke-miterlimit:10;}
</style>
<rect x="261.7" y="22.6" class="st2" width="786.3" height="67.3"/>
<path class="st3" d="M261.7,90h-210c-20.5,0-37.1-16.6-37.1-37.1V22.5h247V90z"/>
<rect x="246.2" y="22.7" class="st4" width="15.4" height="67.3"/>
<g>
	<path class="st5" d="M343,55.6V41.2h5.5c1,0,1.7,0,2.2,0.1c0.7,0.1,1.3,0.3,1.8,0.7c0.5,0.3,0.9,0.8,1.2,1.4s0.4,1.3,0.4,2
		c0,1.2-0.4,2.3-1.2,3.1c-0.8,0.9-2.2,1.3-4.2,1.3h-3.7v5.9H343z M344.9,48h3.7c1.2,0,2.1-0.2,2.6-0.7c0.5-0.5,0.8-1.1,0.8-1.9
		c0-0.6-0.2-1.1-0.5-1.6s-0.7-0.7-1.2-0.9c-0.3-0.1-0.9-0.1-1.8-0.1h-3.7V48z"/>
	<path class="st5" d="M363,54.3c-0.7,0.6-1.3,1-1.9,1.2s-1.3,0.3-2,0.3c-1.2,0-2-0.3-2.7-0.8c-0.6-0.6-0.9-1.3-0.9-2.2
		c0-0.5,0.1-1,0.4-1.4c0.2-0.4,0.5-0.8,0.9-1s0.8-0.5,1.3-0.6c0.3-0.1,0.9-0.2,1.6-0.3c1.4-0.2,2.5-0.4,3.2-0.6c0-0.2,0-0.4,0-0.5
		c0-0.7-0.2-1.2-0.5-1.5c-0.5-0.4-1.1-0.6-2-0.6c-0.8,0-1.5,0.1-1.8,0.4c-0.4,0.3-0.7,0.8-0.9,1.6l-1.7-0.2c0.2-0.7,0.4-1.3,0.8-1.8
		c0.4-0.5,0.9-0.8,1.6-1.1s1.5-0.4,2.4-0.4c0.9,0,1.6,0.1,2.2,0.3c0.6,0.2,1,0.5,1.2,0.8s0.4,0.7,0.6,1.2c0.1,0.3,0.1,0.8,0.1,1.6
		v2.4c0,1.7,0,2.7,0.1,3.1c0.1,0.4,0.2,0.9,0.4,1.3h-1.9C363.2,55.2,363.1,54.8,363,54.3z M362.9,50.4c-0.6,0.3-1.6,0.5-2.9,0.7
		c-0.7,0.1-1.2,0.2-1.5,0.4c-0.3,0.1-0.5,0.3-0.7,0.6c-0.2,0.3-0.2,0.5-0.2,0.8c0,0.5,0.2,0.9,0.5,1.2c0.4,0.3,0.9,0.5,1.6,0.5
		c0.7,0,1.3-0.1,1.8-0.4s0.9-0.7,1.2-1.2c0.2-0.4,0.3-1,0.3-1.8V50.4z"/>
	<path class="st5" d="M367.1,56.5l1.7,0.3c0.1,0.5,0.3,0.9,0.6,1.2c0.4,0.3,1,0.5,1.8,0.5c0.8,0,1.5-0.2,1.9-0.5
		c0.4-0.3,0.7-0.8,0.9-1.4c0.1-0.4,0.1-1.1,0.1-2.3c-0.8,0.9-1.7,1.4-2.9,1.4c-1.4,0-2.6-0.5-3.3-1.6c-0.8-1-1.2-2.3-1.2-3.7
		c0-1,0.2-1.9,0.5-2.8s0.9-1.5,1.6-2c0.7-0.5,1.5-0.7,2.4-0.7c1.2,0,2.3,0.5,3.1,1.5v-1.3h1.6v9.1c0,1.6-0.2,2.8-0.5,3.5
		s-0.9,1.2-1.6,1.6c-0.7,0.4-1.6,0.6-2.7,0.6c-1.3,0-2.3-0.3-3-0.8C367.5,58.5,367.1,57.6,367.1,56.5z M368.6,50.2
		c0,1.4,0.3,2.4,0.8,3c0.5,0.6,1.2,0.9,2.1,0.9c0.8,0,1.5-0.3,2.1-0.9c0.6-0.6,0.8-1.6,0.8-3c0-1.3-0.3-2.2-0.9-2.9s-1.3-1-2.1-1
		c-0.8,0-1.5,0.3-2,1C368.9,48,368.6,48.9,368.6,50.2z"/>
	<path class="st5" d="M378,50.4c0-1.9,0.5-3.4,1.6-4.3c0.9-0.8,2-1.2,3.3-1.2c1.4,0,2.6,0.5,3.5,1.4c0.9,0.9,1.4,2.2,1.4,3.9
		c0,1.3-0.2,2.4-0.6,3.2s-1,1.4-1.8,1.8c-0.8,0.4-1.6,0.6-2.5,0.6c-1.5,0-2.7-0.5-3.6-1.4C378.5,53.5,378,52.1,378,50.4z
		 M379.8,50.4c0,1.3,0.3,2.3,0.9,3c0.6,0.7,1.3,1,2.2,1c0.9,0,1.6-0.3,2.2-1c0.6-0.7,0.9-1.7,0.9-3.1c0-1.3-0.3-2.3-0.9-2.9
		c-0.6-0.7-1.3-1-2.2-1c-0.9,0-1.6,0.3-2.2,1C380.1,48,379.8,49,379.8,50.4z"/>
	<path class="st5" d="M389.2,52.5l1.8-0.3c0.1,0.7,0.4,1.2,0.8,1.6c0.5,0.4,1.1,0.6,1.9,0.6c0.8,0,1.4-0.2,1.8-0.5
		c0.4-0.3,0.6-0.7,0.6-1.2c0-0.4-0.2-0.7-0.5-0.9c-0.2-0.2-0.8-0.4-1.8-0.6c-1.3-0.3-2.2-0.6-2.7-0.9c-0.5-0.2-0.9-0.6-1.1-1
		c-0.3-0.4-0.4-0.9-0.4-1.4c0-0.5,0.1-0.9,0.3-1.3c0.2-0.4,0.5-0.7,0.9-1c0.3-0.2,0.7-0.4,1.1-0.5c0.5-0.1,1-0.2,1.5-0.2
		c0.8,0,1.5,0.1,2.2,0.4c0.6,0.2,1.1,0.6,1.4,1c0.3,0.4,0.5,0.9,0.6,1.6l-1.7,0.2c-0.1-0.5-0.3-1-0.7-1.3c-0.4-0.3-0.9-0.5-1.6-0.5
		c-0.8,0-1.4,0.1-1.7,0.4c-0.3,0.3-0.5,0.6-0.5,0.9c0,0.2,0.1,0.4,0.2,0.6c0.1,0.2,0.4,0.3,0.7,0.5c0.2,0.1,0.7,0.2,1.6,0.5
		c1.3,0.3,2.1,0.6,2.6,0.8c0.5,0.2,0.9,0.5,1.2,0.9c0.3,0.4,0.4,0.9,0.4,1.5c0,0.6-0.2,1.1-0.5,1.7c-0.3,0.5-0.8,0.9-1.5,1.2
		c-0.7,0.3-1.4,0.4-2.2,0.4c-1.4,0-2.4-0.3-3.1-0.8C389.8,54.4,389.4,53.6,389.2,52.5z"/>
	<path class="st5" d="M412.8,52.2l1.8,0.2c-0.3,1.1-0.8,1.9-1.6,2.5c-0.8,0.6-1.8,0.9-3,0.9c-1.5,0-2.7-0.5-3.6-1.4
		c-0.9-0.9-1.3-2.3-1.3-4c0-1.8,0.5-3.1,1.4-4.1c0.9-1,2.1-1.5,3.5-1.5c1.4,0,2.5,0.5,3.4,1.4c0.9,1,1.3,2.3,1.3,4
		c0,0.1,0,0.3,0,0.5h-7.8c0.1,1.2,0.4,2,1,2.6c0.6,0.6,1.3,0.9,2.2,0.9c0.7,0,1.2-0.2,1.7-0.5C412.2,53.5,412.5,53,412.8,52.2z
		 M407,49.4h5.8c-0.1-0.9-0.3-1.5-0.7-2c-0.6-0.7-1.3-1-2.2-1c-0.8,0-1.5,0.3-2.1,0.8C407.3,47.7,407,48.5,407,49.4z"/>
	<path class="st5" d="M416.9,55.6V45.1h1.6v1.5c0.8-1.2,1.9-1.7,3.3-1.7c0.6,0,1.2,0.1,1.7,0.3c0.5,0.2,0.9,0.5,1.2,0.9
		c0.3,0.4,0.4,0.8,0.6,1.3c0.1,0.3,0.1,0.9,0.1,1.7v6.4h-1.8v-6.4c0-0.7-0.1-1.3-0.2-1.6c-0.1-0.4-0.4-0.6-0.7-0.9
		c-0.4-0.2-0.8-0.3-1.2-0.3c-0.8,0-1.4,0.2-2,0.7c-0.5,0.5-0.8,1.4-0.8,2.7v5.7H416.9z"/>
	<path class="st5" d="M349.9,69.7l1.8,0.2c-0.3,1.1-0.8,1.9-1.6,2.5c-0.8,0.6-1.8,0.9-3,0.9c-1.5,0-2.7-0.5-3.6-1.4
		c-0.9-0.9-1.3-2.3-1.3-4c0-1.8,0.5-3.1,1.4-4.1c0.9-1,2.1-1.5,3.5-1.5c1.4,0,2.5,0.5,3.4,1.4c0.9,1,1.3,2.3,1.3,4
		c0,0.1,0,0.3,0,0.5H344c0.1,1.2,0.4,2,1,2.6c0.6,0.6,1.3,0.9,2.2,0.9c0.7,0,1.2-0.2,1.7-0.5C349.3,71,349.6,70.4,349.9,69.7z
		 M344.1,66.8h5.8c-0.1-0.9-0.3-1.5-0.7-2c-0.6-0.7-1.3-1-2.2-1c-0.8,0-1.5,0.3-2.1,0.8C344.4,65.2,344.1,65.9,344.1,66.8z"/>
	<path class="st5" d="M354.4,73.1V64h-1.6v-1.4h1.6v-1.1c0-0.7,0.1-1.2,0.2-1.6c0.2-0.5,0.5-0.8,0.9-1.1c0.4-0.3,1-0.4,1.8-0.4
		c0.5,0,1.1,0.1,1.7,0.2l-0.3,1.5c-0.4-0.1-0.7-0.1-1-0.1c-0.5,0-0.9,0.1-1.1,0.3c-0.2,0.2-0.3,0.7-0.3,1.3v1h2V64h-2v9.1H354.4z"/>
	<path class="st5" d="M366.8,69.7l1.8,0.2c-0.3,1.1-0.8,1.9-1.6,2.5c-0.8,0.6-1.8,0.9-3,0.9c-1.5,0-2.7-0.5-3.6-1.4
		c-0.9-0.9-1.3-2.3-1.3-4c0-1.8,0.5-3.1,1.4-4.1c0.9-1,2.1-1.5,3.5-1.5c1.4,0,2.5,0.5,3.4,1.4c0.9,1,1.3,2.3,1.3,4
		c0,0.1,0,0.3,0,0.5h-7.8c0.1,1.2,0.4,2,1,2.6c0.6,0.6,1.3,0.9,2.2,0.9c0.7,0,1.2-0.2,1.7-0.5C366.1,71,366.5,70.4,366.8,69.7z
		 M360.9,66.8h5.8c-0.1-0.9-0.3-1.5-0.7-2c-0.6-0.7-1.3-1-2.2-1c-0.8,0-1.5,0.3-2.1,0.8C361.3,65.2,361,65.9,360.9,66.8z"/>
	<path class="st5" d="M377.6,69.2l1.7,0.2c-0.2,1.2-0.7,2.1-1.5,2.8c-0.8,0.7-1.8,1-2.9,1c-1.4,0-2.6-0.5-3.5-1.4
		c-0.9-0.9-1.3-2.3-1.3-4c0-1.1,0.2-2.1,0.6-3c0.4-0.8,0.9-1.5,1.7-1.9c0.8-0.4,1.6-0.6,2.5-0.6c1.1,0,2.1,0.3,2.8,0.9
		c0.7,0.6,1.2,1.4,1.4,2.5l-1.7,0.3c-0.2-0.7-0.5-1.2-0.9-1.6c-0.4-0.4-0.9-0.5-1.5-0.5c-0.9,0-1.6,0.3-2.2,1
		c-0.6,0.6-0.8,1.7-0.8,3c0,1.4,0.3,2.4,0.8,3.1s1.2,1,2.1,1c0.7,0,1.3-0.2,1.7-0.6C377.2,70.8,377.5,70.1,377.6,69.2z"/>
	<path class="st5" d="M384.8,71.5L385,73c-0.5,0.1-0.9,0.2-1.3,0.2c-0.6,0-1.1-0.1-1.5-0.3c-0.4-0.2-0.6-0.5-0.7-0.8
		c-0.1-0.3-0.2-1-0.2-2.1v-6h-1.3v-1.4h1.3V60l1.8-1.1v3.7h1.8V64H383v6.1c0,0.5,0,0.8,0.1,1s0.2,0.3,0.3,0.3
		c0.1,0.1,0.3,0.1,0.6,0.1C384.2,71.5,384.5,71.5,384.8,71.5z"/>
	<path class="st5" d="M386.5,60.6v-2h1.8v2H386.5z M386.5,73.1V62.6h1.8v10.5H386.5z"/>
	<path class="st5" d="M393.9,73.1l-4-10.5h1.9l2.2,6.3c0.2,0.7,0.5,1.4,0.7,2.1c0.2-0.6,0.4-1.2,0.7-2l2.3-6.4h1.8l-4,10.5H393.9z"
		/>
	<path class="st5" d="M400.5,67.8c0-1.9,0.5-3.4,1.6-4.3c0.9-0.8,2-1.2,3.3-1.2c1.4,0,2.6,0.5,3.5,1.4c0.9,0.9,1.4,2.2,1.4,3.9
		c0,1.3-0.2,2.4-0.6,3.2s-1,1.4-1.8,1.8c-0.8,0.4-1.6,0.6-2.5,0.6c-1.5,0-2.7-0.5-3.6-1.4C400.9,70.9,400.5,69.6,400.5,67.8z
		 M402.3,67.8c0,1.3,0.3,2.3,0.9,3c0.6,0.7,1.3,1,2.2,1c0.9,0,1.6-0.3,2.2-1c0.6-0.7,0.9-1.7,0.9-3.1c0-1.3-0.3-2.3-0.9-2.9
		c-0.6-0.7-1.3-1-2.2-1c-0.9,0-1.6,0.3-2.2,1C402.6,65.5,402.3,66.5,402.3,67.8z"/>
</g>
<g>
	<path class="st16" d="M50.3,46.2h10v3.4H57v14.7h-3.5V49.6h-3.2V46.2z"/>
	<path class="st16" d="M76.4,58.6H65.6c0.2,1,0.6,1.7,1.3,2.3c0.7,0.6,1.5,0.8,2.6,0.8c1.3,0,2.3-0.4,3.2-1.3l2.8,1.3
		c-0.7,1-1.6,1.7-2.5,2.2s-2.2,0.7-3.5,0.7c-2.1,0-3.8-0.7-5.1-2c-1.3-1.3-2-3-2-5c0-2,0.7-3.7,2-5.1s3-2,5-2c2.1,0,3.8,0.7,5.2,2
		c1.3,1.4,2,3.1,2,5.4L76.4,58.6z M73.1,55.9c-0.2-0.7-0.7-1.4-1.3-1.8c-0.7-0.5-1.4-0.7-2.3-0.7c-0.9,0-1.8,0.3-2.5,0.8
		c-0.4,0.3-0.9,0.9-1.2,1.7H73.1z"/>
	<path class="st16" d="M93.8,50.5c1.3,0,2.5,0.3,3.6,0.9c1.1,0.6,2,1.5,2.6,2.6c0.6,1.1,0.9,2.3,0.9,3.5c0,1.3-0.3,2.4-0.9,3.6
		c-0.6,1.1-1.5,2-2.6,2.6c-1.1,0.6-2.3,0.9-3.6,0.9c-1.9,0-3.6-0.7-4.9-2.1c-1.4-1.4-2-3-2-5c0-2.1,0.8-3.8,2.3-5.2
		C90.5,51.1,92,50.5,93.8,50.5z M93.8,53.7c-1,0-1.9,0.4-2.6,1.1c-0.7,0.7-1,1.7-1,2.8c0,1.2,0.3,2.1,1,2.8c0.7,0.7,1.6,1.1,2.6,1.1
		s1.9-0.4,2.6-1.1c0.7-0.7,1-1.7,1-2.8s-0.3-2.1-1-2.8S94.9,53.7,93.8,53.7z"/>
	<path class="st16" d="M102.7,50.9h1.2c0-1.8,0-2.8,0.1-3.1c0.1-0.7,0.4-1.3,0.9-1.8c0.5-0.4,1.3-0.6,2.3-0.6c0.7,0,1.5,0.2,2.4,0.5
		v2.6c-0.5-0.1-0.9-0.2-1.2-0.2c-0.4,0-0.7,0.1-0.9,0.2c-0.1,0.1-0.2,0.4-0.2,0.8l0,1.7h2.1v2.8h-2.1v10.6h-3.4V53.7h-1.2V50.9z"/>
	<path class="st16" d="M111.2,50.9h2.9v1.7c0.3-0.7,0.7-1.2,1.2-1.5c0.5-0.3,1.1-0.5,1.7-0.5c0.4,0,0.9,0.1,1.4,0.3l-1,2.9
		c-0.4-0.2-0.7-0.3-1-0.3c-0.5,0-1,0.3-1.3,1s-0.5,1.9-0.5,3.8l0,0.7v5.4h-3.3V50.9z"/>
	<path class="st16" d="M134.1,58.6h-10.8c0.2,1,0.6,1.7,1.3,2.3c0.7,0.6,1.5,0.8,2.6,0.8c1.3,0,2.3-0.4,3.2-1.3l2.8,1.3
		c-0.7,1-1.6,1.7-2.5,2.2s-2.2,0.7-3.5,0.7c-2.1,0-3.8-0.7-5.1-2c-1.3-1.3-2-3-2-5c0-2,0.7-3.7,2-5.1s3-2,5-2c2.1,0,3.8,0.7,5.2,2
		c1.3,1.4,2,3.1,2,5.4L134.1,58.6z M130.7,55.9c-0.2-0.7-0.7-1.4-1.3-1.8c-0.7-0.5-1.4-0.7-2.3-0.7c-0.9,0-1.8,0.3-2.5,0.8
		c-0.4,0.3-0.9,0.9-1.2,1.7H130.7z"/>
	<path class="st16" d="M150.6,53.6l-2.8,1.5c-0.5-0.6-1-0.9-1.6-1.1c-0.5-0.2-1.1-0.3-1.8-0.3c-1.3,0-2.3,0.4-3.1,1.1
		c-0.8,0.8-1.2,1.7-1.2,2.9c0,1.1,0.4,2.1,1.1,2.8s1.7,1.1,3,1.1c1.5,0,2.7-0.5,3.5-1.5l2.7,1.8c-1.4,1.9-3.5,2.8-6.1,2.8
		c-2.4,0-4.2-0.7-5.5-2.1c-1.3-1.4-2-3-2-4.9c0-1.3,0.3-2.5,1-3.6c0.6-1.1,1.6-2,2.7-2.6s2.5-0.9,3.9-0.9c1.3,0,2.5,0.3,3.6,0.8
		C149.1,51.9,149.9,52.6,150.6,53.6z"/>
	<path class="st16" d="M167.7,58.6h-10.8c0.2,1,0.6,1.7,1.3,2.3c0.7,0.6,1.5,0.8,2.6,0.8c1.3,0,2.3-0.4,3.2-1.3l2.8,1.3
		c-0.7,1-1.6,1.7-2.5,2.2s-2.2,0.7-3.5,0.7c-2.1,0-3.8-0.7-5.1-2c-1.3-1.3-2-3-2-5c0-2,0.7-3.7,2-5.1s3-2,5-2c2.1,0,3.8,0.7,5.2,2
		c1.3,1.4,2,3.1,2,5.4L167.7,58.6z M164.3,55.9c-0.2-0.7-0.7-1.4-1.3-1.8c-0.7-0.5-1.4-0.7-2.3-0.7c-0.9,0-1.8,0.3-2.5,0.8
		c-0.4,0.3-0.9,0.9-1.2,1.7H164.3z"/>
	<path class="st16" d="M171,50.9h3.4v1.5c0.6-0.6,1.2-1.1,1.9-1.4c0.7-0.3,1.5-0.5,2.3-0.5c0.8,0,1.6,0.2,2.3,0.6
		c0.7,0.4,1.2,1,1.6,1.8c0.5-0.8,1.2-1.4,2-1.8c0.8-0.4,1.6-0.6,2.5-0.6c1,0,1.8,0.2,2.5,0.7s1.2,1,1.6,1.7c0.3,0.7,0.5,1.9,0.5,3.5
		v7.9h-3.4v-6.8c0-1.5-0.2-2.5-0.6-3.1s-0.9-0.8-1.7-0.8c-0.6,0-1.1,0.2-1.5,0.5c-0.5,0.3-0.8,0.8-1,1.4S183,57,183,58.2v6.1h-3.4
		v-6.5c0-1.2-0.1-2.1-0.3-2.6c-0.2-0.5-0.4-0.9-0.8-1.2s-0.8-0.4-1.3-0.4c-0.6,0-1.1,0.2-1.5,0.5c-0.5,0.3-0.8,0.8-1,1.4
		c-0.2,0.6-0.3,1.5-0.3,2.8v6H171V50.9z"/>
	<path class="st16" d="M201.7,50.5c1.3,0,2.5,0.3,3.6,0.9c1.1,0.6,2,1.5,2.6,2.6c0.6,1.1,0.9,2.3,0.9,3.5c0,1.3-0.3,2.4-0.9,3.6
		c-0.6,1.1-1.5,2-2.6,2.6c-1.1,0.6-2.3,0.9-3.6,0.9c-1.9,0-3.6-0.7-4.9-2.1c-1.4-1.4-2-3-2-5c0-2.1,0.8-3.8,2.3-5.2
		C198.4,51.1,200,50.5,201.7,50.5z M201.8,53.7c-1,0-1.9,0.4-2.6,1.1c-0.7,0.7-1,1.7-1,2.8c0,1.2,0.3,2.1,1,2.8
		c0.7,0.7,1.6,1.1,2.6,1.1s1.9-0.4,2.6-1.1c0.7-0.7,1-1.7,1-2.8s-0.3-2.1-1-2.8S202.8,53.7,201.8,53.7z"/>
	<path class="st16" d="M220.4,52.7l-2.1,2.1c-0.8-0.8-1.6-1.3-2.3-1.3c-0.4,0-0.7,0.1-0.9,0.2s-0.3,0.4-0.3,0.6
		c0,0.2,0.1,0.3,0.2,0.5c0.1,0.2,0.5,0.4,1,0.6l1.2,0.6c1.3,0.6,2.2,1.3,2.7,2c0.5,0.7,0.7,1.4,0.7,2.3c0,1.2-0.4,2.2-1.3,3
		c-0.9,0.8-2,1.2-3.5,1.2c-2,0-3.5-0.8-4.7-2.3l2.1-2.3c0.4,0.5,0.9,0.8,1.4,1.1s1,0.4,1.4,0.4c0.4,0,0.8-0.1,1.1-0.3
		c0.3-0.2,0.4-0.5,0.4-0.7c0-0.5-0.5-1-1.5-1.5l-1.1-0.6c-2.2-1.1-3.3-2.5-3.3-4.1c0-1.1,0.4-2,1.2-2.7c0.8-0.8,1.9-1.1,3.1-1.1
		c0.9,0,1.7,0.2,2.5,0.6S219.9,52,220.4,52.7z"/>
</g>
<circle class="st5" cx="307" cy="57.1" r="23"/>
<g>
	<path class="st5" d="M505.7,55V40.6h2.9l3.4,10.2c0.3,1,0.5,1.7,0.7,2.1c0.2-0.5,0.4-1.3,0.8-2.3l3.5-10.1h2.6V55h-1.8V42.9
		L513.5,55h-1.7l-4.2-12.3V55H505.7z"/>
	<path class="st5" d="M529.3,55v-1.5c-0.8,1.2-1.9,1.8-3.3,1.8c-0.6,0-1.2-0.1-1.7-0.4c-0.5-0.2-0.9-0.5-1.2-0.9
		c-0.3-0.4-0.4-0.8-0.5-1.3c-0.1-0.3-0.1-0.9-0.1-1.7v-6.5h1.8v5.8c0,0.9,0,1.6,0.1,1.9c0.1,0.5,0.3,0.8,0.7,1.1s0.8,0.4,1.3,0.4
		c0.5,0,1-0.1,1.5-0.4c0.5-0.3,0.8-0.6,1-1.1c0.2-0.5,0.3-1.2,0.3-2v-5.6h1.8V55H529.3z M525.5,43.3l1.3-2.8h2.3l-2.2,2.8H525.5z"/>
	<path class="st5" d="M533.6,55V40.6h1.8V55H533.6z"/>
	<path class="st5" d="M542,53.5l0.3,1.6c-0.5,0.1-0.9,0.2-1.3,0.2c-0.6,0-1.1-0.1-1.5-0.3c-0.4-0.2-0.6-0.5-0.7-0.8
		c-0.1-0.3-0.2-1-0.2-2.1v-6h-1.3v-1.4h1.3V42l1.8-1.1v3.7h1.8v1.4h-1.8v6.1c0,0.5,0,0.8,0.1,1s0.2,0.3,0.3,0.3
		c0.1,0.1,0.3,0.1,0.6,0.1C541.4,53.5,541.7,53.5,542,53.5z"/>
	<path class="st5" d="M543.7,42.6v-2h1.8v2H543.7z M543.7,55V44.6h1.8V55H543.7z"/>
	<path class="st5" d="M548.2,59.1V44.6h1.6v1.4c0.4-0.5,0.8-0.9,1.3-1.2c0.5-0.3,1.1-0.4,1.7-0.4c0.9,0,1.7,0.2,2.4,0.7
		c0.7,0.5,1.2,1.1,1.5,1.9c0.3,0.8,0.5,1.8,0.5,2.8c0,1.1-0.2,2-0.6,2.9c-0.4,0.9-0.9,1.5-1.7,2s-1.5,0.7-2.3,0.7
		c-0.6,0-1.1-0.1-1.6-0.4c-0.5-0.2-0.9-0.6-1.2-0.9v5.1H548.2z M549.8,49.9c0,1.3,0.3,2.3,0.8,3c0.5,0.6,1.2,1,2,1
		c0.8,0,1.5-0.3,2-1c0.6-0.7,0.8-1.7,0.8-3.1c0-1.3-0.3-2.3-0.8-3s-1.2-1-2-1c-0.8,0-1.4,0.4-2,1.1
		C550.1,47.5,549.8,48.5,549.8,49.9z"/>
	<path class="st5" d="M559.4,55V40.6h1.8V55H559.4z"/>
	<path class="st5" d="M571.1,51.7l1.8,0.2c-0.3,1.1-0.8,1.9-1.6,2.5c-0.8,0.6-1.8,0.9-3,0.9c-1.5,0-2.7-0.5-3.6-1.4
		c-0.9-0.9-1.3-2.3-1.3-4c0-1.8,0.5-3.1,1.4-4.1c0.9-1,2.1-1.5,3.5-1.5c1.4,0,2.5,0.5,3.4,1.4c0.9,1,1.3,2.3,1.3,4
		c0,0.1,0,0.3,0,0.5h-7.8c0.1,1.2,0.4,2,1,2.6c0.6,0.6,1.3,0.9,2.2,0.9c0.7,0,1.2-0.2,1.7-0.5C570.5,53,570.8,52.4,571.1,51.7z
		 M565.3,48.8h5.8c-0.1-0.9-0.3-1.5-0.7-2c-0.6-0.7-1.3-1-2.2-1c-0.8,0-1.5,0.3-2.1,0.8C565.6,47.2,565.3,47.9,565.3,48.8z"/>
	<path class="st5" d="M574.5,51.9l1.8-0.3c0.1,0.7,0.4,1.2,0.8,1.6c0.5,0.4,1.1,0.6,1.9,0.6c0.8,0,1.4-0.2,1.8-0.5
		c0.4-0.3,0.6-0.7,0.6-1.2c0-0.4-0.2-0.7-0.5-0.9c-0.2-0.2-0.8-0.4-1.8-0.6c-1.3-0.3-2.2-0.6-2.7-0.9c-0.5-0.2-0.9-0.6-1.1-1
		c-0.3-0.4-0.4-0.9-0.4-1.4c0-0.5,0.1-0.9,0.3-1.3c0.2-0.4,0.5-0.7,0.9-1c0.3-0.2,0.7-0.4,1.1-0.5c0.5-0.1,1-0.2,1.5-0.2
		c0.8,0,1.5,0.1,2.2,0.4c0.6,0.2,1.1,0.6,1.4,1c0.3,0.4,0.5,0.9,0.6,1.6l-1.7,0.2c-0.1-0.5-0.3-1-0.7-1.3c-0.4-0.3-0.9-0.5-1.6-0.5
		c-0.8,0-1.4,0.1-1.7,0.4c-0.3,0.3-0.5,0.6-0.5,0.9c0,0.2,0.1,0.4,0.2,0.6c0.1,0.2,0.4,0.3,0.7,0.5c0.2,0.1,0.7,0.2,1.6,0.5
		c1.3,0.3,2.1,0.6,2.6,0.8c0.5,0.2,0.9,0.5,1.2,0.9c0.3,0.4,0.4,0.9,0.4,1.5c0,0.6-0.2,1.1-0.5,1.7c-0.3,0.5-0.8,0.9-1.5,1.2
		c-0.7,0.3-1.4,0.4-2.2,0.4c-1.4,0-2.4-0.3-3.1-0.8C575.1,53.9,574.7,53,574.5,51.9z"/>
	<path class="st5" d="M505.6,72.5V62h1.6v1.5c0.3-0.5,0.8-0.9,1.3-1.2c0.5-0.3,1.2-0.5,1.9-0.5c0.8,0,1.4,0.2,1.9,0.5
		c0.5,0.3,0.8,0.8,1.1,1.4c0.8-1.2,1.9-1.8,3.2-1.8c1,0,1.8,0.3,2.4,0.9c0.6,0.6,0.8,1.5,0.8,2.7v7.2H518v-6.6
		c0-0.7-0.1-1.2-0.2-1.5c-0.1-0.3-0.3-0.6-0.6-0.8c-0.3-0.2-0.7-0.3-1.1-0.3c-0.7,0-1.3,0.2-1.8,0.7s-0.7,1.3-0.7,2.4v6.1h-1.8v-6.8
		c0-0.8-0.1-1.4-0.4-1.8c-0.3-0.4-0.8-0.6-1.4-0.6c-0.5,0-1,0.1-1.4,0.4c-0.4,0.3-0.7,0.6-0.9,1.2s-0.3,1.2-0.3,2.2v5.4H505.6z"/>
	<path class="st5" d="M529.6,69.1l1.8,0.2c-0.3,1.1-0.8,1.9-1.6,2.5c-0.8,0.6-1.8,0.9-3,0.9c-1.5,0-2.7-0.5-3.6-1.4
		c-0.9-0.9-1.3-2.3-1.3-4c0-1.8,0.5-3.1,1.4-4.1c0.9-1,2.1-1.5,3.5-1.5c1.4,0,2.5,0.5,3.4,1.4c0.9,1,1.3,2.3,1.3,4
		c0,0.1,0,0.3,0,0.5h-7.8c0.1,1.2,0.4,2,1,2.6c0.6,0.6,1.3,0.9,2.2,0.9c0.7,0,1.2-0.2,1.7-0.5C528.9,70.4,529.3,69.9,529.6,69.1z
		 M523.7,66.2h5.8c-0.1-0.9-0.3-1.5-0.7-2c-0.6-0.7-1.3-1-2.2-1c-0.8,0-1.5,0.3-2.1,0.8C524.1,64.6,523.8,65.3,523.7,66.2z"/>
	<path class="st5" d="M540.4,72.5v-1.3c-0.7,1-1.6,1.6-2.9,1.6c-0.8,0-1.6-0.2-2.3-0.7s-1.2-1.1-1.6-1.9s-0.6-1.8-0.6-2.8
		c0-1,0.2-2,0.5-2.8s0.9-1.5,1.6-2c0.7-0.5,1.5-0.7,2.3-0.7c0.6,0,1.2,0.1,1.7,0.4s0.9,0.6,1.2,1V58h1.8v14.5H540.4z M534.8,67.3
		c0,1.3,0.3,2.3,0.8,3c0.6,0.7,1.2,1,2,1c0.8,0,1.4-0.3,2-1c0.5-0.6,0.8-1.6,0.8-2.9c0-1.4-0.3-2.5-0.8-3.2c-0.6-0.7-1.2-1-2-1
		c-0.8,0-1.4,0.3-2,1S534.8,65.9,534.8,67.3z"/>
	<path class="st5" d="M544.9,60.1v-2h1.8v2H544.9z M544.9,72.5V62h1.8v10.5H544.9z"/>
	<path class="st5" d="M548.7,67.2c0-1.9,0.5-3.4,1.6-4.3c0.9-0.8,2-1.2,3.3-1.2c1.4,0,2.6,0.5,3.5,1.4c0.9,0.9,1.4,2.2,1.4,3.9
		c0,1.3-0.2,2.4-0.6,3.2s-1,1.4-1.8,1.8c-0.8,0.4-1.6,0.6-2.5,0.6c-1.5,0-2.7-0.5-3.6-1.4C549.1,70.4,548.7,69,548.7,67.2z
		 M550.5,67.2c0,1.3,0.3,2.3,0.9,3c0.6,0.7,1.3,1,2.2,1c0.9,0,1.6-0.3,2.2-1c0.6-0.7,0.9-1.7,0.9-3.1c0-1.3-0.3-2.3-0.9-2.9
		c-0.6-0.7-1.3-1-2.2-1c-0.9,0-1.6,0.3-2.2,1C550.8,64.9,550.5,65.9,550.5,67.2z"/>
	<path class="st5" d="M559.9,69.4l1.8-0.3c0.1,0.7,0.4,1.2,0.8,1.6c0.5,0.4,1.1,0.6,1.9,0.6c0.8,0,1.4-0.2,1.8-0.5
		c0.4-0.3,0.6-0.7,0.6-1.2c0-0.4-0.2-0.7-0.5-0.9c-0.2-0.2-0.8-0.4-1.8-0.6c-1.3-0.3-2.2-0.6-2.7-0.9c-0.5-0.2-0.9-0.6-1.1-1
		c-0.3-0.4-0.4-0.9-0.4-1.4c0-0.5,0.1-0.9,0.3-1.3c0.2-0.4,0.5-0.7,0.9-1c0.3-0.2,0.7-0.4,1.1-0.5c0.5-0.1,1-0.2,1.5-0.2
		c0.8,0,1.5,0.1,2.2,0.4c0.6,0.2,1.1,0.6,1.4,1c0.3,0.4,0.5,0.9,0.6,1.6l-1.7,0.2c-0.1-0.5-0.3-1-0.7-1.3c-0.4-0.3-0.9-0.5-1.6-0.5
		c-0.8,0-1.4,0.1-1.7,0.4c-0.3,0.3-0.5,0.6-0.5,0.9c0,0.2,0.1,0.4,0.2,0.6c0.1,0.2,0.4,0.3,0.7,0.5c0.2,0.1,0.7,0.2,1.6,0.5
		c1.3,0.3,2.1,0.6,2.6,0.8c0.5,0.2,0.9,0.5,1.2,0.9c0.3,0.4,0.4,0.9,0.4,1.5c0,0.6-0.2,1.1-0.5,1.7c-0.3,0.5-0.8,0.9-1.5,1.2
		c-0.7,0.3-1.4,0.4-2.2,0.4c-1.4,0-2.4-0.3-3.1-0.8C560.5,71.3,560.1,70.5,559.9,69.4z"/>
	<path class="st5" d="M583.1,72.5v-1.3c-0.7,1-1.6,1.6-2.9,1.6c-0.8,0-1.6-0.2-2.3-0.7s-1.2-1.1-1.6-1.9s-0.6-1.8-0.6-2.8
		c0-1,0.2-2,0.5-2.8s0.9-1.5,1.6-2c0.7-0.5,1.5-0.7,2.3-0.7c0.6,0,1.2,0.1,1.7,0.4s0.9,0.6,1.2,1V58h1.8v14.5H583.1z M577.5,67.3
		c0,1.3,0.3,2.3,0.8,3c0.6,0.7,1.2,1,2,1c0.8,0,1.4-0.3,2-1c0.5-0.6,0.8-1.6,0.8-2.9c0-1.4-0.3-2.5-0.8-3.2c-0.6-0.7-1.2-1-2-1
		c-0.8,0-1.4,0.3-2,1S577.5,65.9,577.5,67.3z"/>
	<path class="st5" d="M594.7,69.1l1.8,0.2c-0.3,1.1-0.8,1.9-1.6,2.5c-0.8,0.6-1.8,0.9-3,0.9c-1.5,0-2.7-0.5-3.6-1.4
		c-0.9-0.9-1.3-2.3-1.3-4c0-1.8,0.5-3.1,1.4-4.1c0.9-1,2.1-1.5,3.5-1.5c1.4,0,2.5,0.5,3.4,1.4c0.9,1,1.3,2.3,1.3,4
		c0,0.1,0,0.3,0,0.5h-7.8c0.1,1.2,0.4,2,1,2.6c0.6,0.6,1.3,0.9,2.2,0.9c0.7,0,1.2-0.2,1.7-0.5C594.1,70.4,594.4,69.9,594.7,69.1z
		 M588.9,66.2h5.8c-0.1-0.9-0.3-1.5-0.7-2c-0.6-0.7-1.3-1-2.2-1c-0.8,0-1.5,0.3-2.1,0.8C589.2,64.6,588.9,65.3,588.9,66.2z"/>
	<path class="st5" d="M604.4,76.5V62h1.6v1.4c0.4-0.5,0.8-0.9,1.3-1.2c0.5-0.3,1.1-0.4,1.7-0.4c0.9,0,1.7,0.2,2.4,0.7
		c0.7,0.5,1.2,1.1,1.5,1.9c0.3,0.8,0.5,1.8,0.5,2.8c0,1.1-0.2,2-0.6,2.9c-0.4,0.9-0.9,1.5-1.7,2s-1.5,0.7-2.3,0.7
		c-0.6,0-1.1-0.1-1.6-0.4c-0.5-0.2-0.9-0.6-1.2-0.9v5.1H604.4z M606,67.3c0,1.3,0.3,2.3,0.8,3c0.5,0.6,1.2,1,2,1c0.8,0,1.5-0.3,2-1
		c0.6-0.7,0.8-1.7,0.8-3.1c0-1.3-0.3-2.3-0.8-3s-1.2-1-2-1c-0.8,0-1.4,0.4-2,1.1C606.3,64.9,606,66,606,67.3z"/>
	<path class="st5" d="M622.4,71.2c-0.7,0.6-1.3,1-1.9,1.2s-1.3,0.3-2,0.3c-1.2,0-2-0.3-2.7-0.8c-0.6-0.6-0.9-1.3-0.9-2.2
		c0-0.5,0.1-1,0.4-1.4c0.2-0.4,0.5-0.8,0.9-1s0.8-0.5,1.3-0.6c0.3-0.1,0.9-0.2,1.6-0.3c1.4-0.2,2.5-0.4,3.2-0.6c0-0.2,0-0.4,0-0.5
		c0-0.7-0.2-1.2-0.5-1.5c-0.5-0.4-1.1-0.6-2-0.6c-0.8,0-1.5,0.1-1.8,0.4c-0.4,0.3-0.7,0.8-0.9,1.6l-1.7-0.2c0.2-0.7,0.4-1.3,0.8-1.8
		c0.4-0.5,0.9-0.8,1.6-1.1s1.5-0.4,2.4-0.4c0.9,0,1.6,0.1,2.2,0.3c0.6,0.2,1,0.5,1.2,0.8s0.4,0.7,0.6,1.2c0.1,0.3,0.1,0.8,0.1,1.6
		v2.4c0,1.7,0,2.7,0.1,3.1c0.1,0.4,0.2,0.9,0.4,1.3h-1.9C622.6,72.1,622.5,71.7,622.4,71.2z M622.3,67.2c-0.6,0.3-1.6,0.5-2.9,0.7
		c-0.7,0.1-1.2,0.2-1.5,0.4c-0.3,0.1-0.5,0.3-0.7,0.6c-0.2,0.3-0.2,0.5-0.2,0.8c0,0.5,0.2,0.9,0.5,1.2c0.4,0.3,0.9,0.5,1.6,0.5
		c0.7,0,1.3-0.1,1.8-0.4s0.9-0.7,1.2-1.2c0.2-0.4,0.3-1,0.3-1.8V67.2z"/>
	<path class="st5" d="M626.5,73.4l1.7,0.3c0.1,0.5,0.3,0.9,0.6,1.2c0.4,0.3,1,0.5,1.8,0.5c0.8,0,1.5-0.2,1.9-0.5
		c0.4-0.3,0.7-0.8,0.9-1.4c0.1-0.4,0.1-1.1,0.1-2.3c-0.8,0.9-1.7,1.4-2.9,1.4c-1.4,0-2.6-0.5-3.3-1.6c-0.8-1-1.2-2.3-1.2-3.7
		c0-1,0.2-1.9,0.5-2.8s0.9-1.5,1.6-2c0.7-0.5,1.5-0.7,2.4-0.7c1.2,0,2.3,0.5,3.1,1.5V62h1.6v9.1c0,1.6-0.2,2.8-0.5,3.5
		s-0.9,1.2-1.6,1.6c-0.7,0.4-1.6,0.6-2.7,0.6c-1.3,0-2.3-0.3-3-0.8C626.9,75.3,626.5,74.5,626.5,73.4z M628,67.1
		c0,1.4,0.3,2.4,0.8,3c0.5,0.6,1.2,0.9,2.1,0.9c0.8,0,1.5-0.3,2.1-0.9c0.6-0.6,0.8-1.6,0.8-3c0-1.3-0.3-2.2-0.9-2.9s-1.3-1-2.1-1
		c-0.8,0-1.5,0.3-2,1C628.3,64.8,628,65.8,628,67.1z"/>
	<path class="st5" d="M637.4,67.2c0-1.9,0.5-3.4,1.6-4.3c0.9-0.8,2-1.2,3.3-1.2c1.4,0,2.6,0.5,3.5,1.4c0.9,0.9,1.4,2.2,1.4,3.9
		c0,1.3-0.2,2.4-0.6,3.2s-1,1.4-1.8,1.8c-0.8,0.4-1.6,0.6-2.5,0.6c-1.5,0-2.7-0.5-3.6-1.4C637.9,70.4,637.4,69,637.4,67.2z
		 M639.2,67.2c0,1.3,0.3,2.3,0.9,3c0.6,0.7,1.3,1,2.2,1c0.9,0,1.6-0.3,2.2-1c0.6-0.7,0.9-1.7,0.9-3.1c0-1.3-0.3-2.3-0.9-2.9
		c-0.6-0.7-1.3-1-2.2-1c-0.9,0-1.6,0.3-2.2,1C639.5,64.9,639.2,65.9,639.2,67.2z"/>
</g>
<circle class="st5" cx="469.8" cy="56.5" r="23"/>
<circle class="st5" cx="692.1" cy="55.7" r="23"/>
<g>
	<path class="st5" d="M892.4,50.3l1.9,0.5c-0.4,1.6-1.1,2.8-2.2,3.6s-2.3,1.2-3.8,1.2c-1.6,0-2.8-0.3-3.8-1s-1.7-1.6-2.2-2.8
		c-0.5-1.2-0.8-2.5-0.8-3.9c0-1.5,0.3-2.8,0.9-3.9c0.6-1.1,1.4-2,2.5-2.6c1.1-0.6,2.2-0.9,3.5-0.9c1.4,0,2.7,0.4,3.6,1.1
		s1.7,1.8,2.1,3.1l-1.9,0.4c-0.3-1.1-0.8-1.8-1.5-2.3s-1.4-0.7-2.4-0.7c-1.1,0-2,0.3-2.8,0.8c-0.7,0.5-1.3,1.2-1.6,2.1
		c-0.3,0.9-0.5,1.8-0.5,2.8c0,1.2,0.2,2.3,0.5,3.2c0.4,0.9,0.9,1.6,1.7,2.1c0.8,0.5,1.6,0.7,2.5,0.7c1.1,0,2-0.3,2.7-0.9
		C891.6,52.4,892.1,51.5,892.4,50.3z"/>
	<path class="st5" d="M895.8,50.1c0-1.9,0.5-3.4,1.6-4.3c0.9-0.8,2-1.2,3.3-1.2c1.4,0,2.6,0.5,3.5,1.4c0.9,0.9,1.4,2.2,1.4,3.9
		c0,1.3-0.2,2.4-0.6,3.2s-1,1.4-1.8,1.8c-0.8,0.4-1.6,0.6-2.5,0.6c-1.5,0-2.7-0.5-3.6-1.4C896.2,53.3,895.8,51.9,895.8,50.1z
		 M897.6,50.1c0,1.3,0.3,2.3,0.9,3c0.6,0.7,1.3,1,2.2,1c0.9,0,1.6-0.3,2.2-1c0.6-0.7,0.9-1.7,0.9-3.1c0-1.3-0.3-2.3-0.9-2.9
		c-0.6-0.7-1.3-1-2.2-1c-0.9,0-1.6,0.3-2.2,1C897.9,47.8,897.6,48.8,897.6,50.1z"/>
	<path class="st5" d="M907.7,55.4V44.9h1.6v1.5c0.3-0.5,0.8-0.9,1.3-1.2c0.5-0.3,1.2-0.5,1.9-0.5c0.8,0,1.4,0.2,1.9,0.5
		c0.5,0.3,0.8,0.8,1.1,1.4c0.8-1.2,1.9-1.8,3.2-1.8c1,0,1.8,0.3,2.4,0.9c0.6,0.6,0.8,1.5,0.8,2.7v7.2h-1.8v-6.6
		c0-0.7-0.1-1.2-0.2-1.5c-0.1-0.3-0.3-0.6-0.6-0.8c-0.3-0.2-0.7-0.3-1.1-0.3c-0.7,0-1.3,0.2-1.8,0.7s-0.7,1.3-0.7,2.4v6.1h-1.8v-6.8
		c0-0.8-0.1-1.4-0.4-1.8c-0.3-0.4-0.8-0.6-1.4-0.6c-0.5,0-1,0.1-1.4,0.4c-0.4,0.3-0.7,0.6-0.9,1.2s-0.3,1.2-0.3,2.2v5.4H907.7z"/>
	<path class="st5" d="M924.5,59.4V44.9h1.6v1.4c0.4-0.5,0.8-0.9,1.3-1.2c0.5-0.3,1.1-0.4,1.7-0.4c0.9,0,1.7,0.2,2.4,0.7
		c0.7,0.5,1.2,1.1,1.5,1.9c0.3,0.8,0.5,1.8,0.5,2.8c0,1.1-0.2,2-0.6,2.9c-0.4,0.9-0.9,1.5-1.7,2s-1.5,0.7-2.3,0.7
		c-0.6,0-1.1-0.1-1.6-0.4c-0.5-0.2-0.9-0.6-1.2-0.9v5.1H924.5z M926.1,50.2c0,1.3,0.3,2.3,0.8,3c0.5,0.6,1.2,1,2,1
		c0.8,0,1.5-0.3,2-1c0.6-0.7,0.8-1.7,0.8-3.1c0-1.3-0.3-2.3-0.8-3s-1.2-1-2-1c-0.8,0-1.4,0.4-2,1.1
		C926.4,47.8,926.1,48.8,926.1,50.2z"/>
	<path class="st5" d="M935.7,55.4V44.9h1.6v1.6c0.4-0.7,0.8-1.2,1.1-1.5c0.3-0.2,0.7-0.4,1.1-0.4c0.6,0,1.2,0.2,1.8,0.6l-0.6,1.6
		c-0.4-0.3-0.9-0.4-1.3-0.4c-0.4,0-0.7,0.1-1,0.4c-0.3,0.2-0.5,0.6-0.7,1c-0.2,0.6-0.3,1.3-0.3,2.1v5.5H935.7z"/>
	<path class="st5" d="M949.3,54.1c-0.7,0.6-1.3,1-1.9,1.2s-1.3,0.3-2,0.3c-1.2,0-2-0.3-2.7-0.8c-0.6-0.6-0.9-1.3-0.9-2.2
		c0-0.5,0.1-1,0.4-1.4c0.2-0.4,0.5-0.8,0.9-1s0.8-0.5,1.3-0.6c0.3-0.1,0.9-0.2,1.6-0.3c1.4-0.2,2.5-0.4,3.2-0.6c0-0.2,0-0.4,0-0.5
		c0-0.7-0.2-1.2-0.5-1.5c-0.5-0.4-1.1-0.6-2-0.6c-0.8,0-1.5,0.1-1.8,0.4c-0.4,0.3-0.7,0.8-0.9,1.6l-1.7-0.2c0.2-0.7,0.4-1.3,0.8-1.8
		c0.4-0.5,0.9-0.8,1.6-1.1s1.5-0.4,2.4-0.4c0.9,0,1.6,0.1,2.2,0.3c0.6,0.2,1,0.5,1.2,0.8s0.4,0.7,0.6,1.2c0.1,0.3,0.1,0.8,0.1,1.6
		V51c0,1.7,0,2.7,0.1,3.1c0.1,0.4,0.2,0.9,0.4,1.3h-1.9C949.5,55,949.4,54.6,949.3,54.1z M949.2,50.1c-0.6,0.3-1.6,0.5-2.9,0.7
		c-0.7,0.1-1.2,0.2-1.5,0.4c-0.3,0.1-0.5,0.3-0.7,0.6c-0.2,0.3-0.2,0.5-0.2,0.8c0,0.5,0.2,0.9,0.5,1.2c0.4,0.3,0.9,0.5,1.6,0.5
		c0.7,0,1.3-0.1,1.8-0.4s0.9-0.7,1.2-1.2c0.2-0.4,0.3-1,0.3-1.8V50.1z"/>
	<path class="st5" d="M953,52.2l1.8-0.3c0.1,0.7,0.4,1.2,0.8,1.6c0.5,0.4,1.1,0.6,1.9,0.6c0.8,0,1.4-0.2,1.8-0.5
		c0.4-0.3,0.6-0.7,0.6-1.2c0-0.4-0.2-0.7-0.5-0.9c-0.2-0.2-0.8-0.4-1.8-0.6c-1.3-0.3-2.2-0.6-2.7-0.9c-0.5-0.2-0.9-0.6-1.1-1
		c-0.3-0.4-0.4-0.9-0.4-1.4c0-0.5,0.1-0.9,0.3-1.3c0.2-0.4,0.5-0.7,0.9-1c0.3-0.2,0.7-0.4,1.1-0.5c0.5-0.1,1-0.2,1.5-0.2
		c0.8,0,1.5,0.1,2.2,0.4c0.6,0.2,1.1,0.6,1.4,1c0.3,0.4,0.5,0.9,0.6,1.6l-1.7,0.2c-0.1-0.5-0.3-1-0.7-1.3c-0.4-0.3-0.9-0.5-1.6-0.5
		c-0.8,0-1.4,0.1-1.7,0.4c-0.3,0.3-0.5,0.6-0.5,0.9c0,0.2,0.1,0.4,0.2,0.6c0.1,0.2,0.4,0.3,0.7,0.5c0.2,0.1,0.7,0.2,1.6,0.5
		c1.3,0.3,2.1,0.6,2.6,0.8c0.5,0.2,0.9,0.5,1.2,0.9c0.3,0.4,0.4,0.9,0.4,1.5c0,0.6-0.2,1.1-0.5,1.7c-0.3,0.5-0.8,0.9-1.5,1.2
		c-0.7,0.3-1.4,0.4-2.2,0.4c-1.4,0-2.4-0.3-3.1-0.8C953.6,54.2,953.2,53.4,953,52.2z"/>
	<path class="st5" d="M881.9,76.8V62.3h1.6v1.4c0.4-0.5,0.8-0.9,1.3-1.2c0.5-0.3,1.1-0.4,1.7-0.4c0.9,0,1.7,0.2,2.4,0.7
		c0.7,0.5,1.2,1.1,1.5,1.9c0.3,0.8,0.5,1.8,0.5,2.8c0,1.1-0.2,2-0.6,2.9c-0.4,0.9-0.9,1.5-1.7,2s-1.5,0.7-2.3,0.7
		c-0.6,0-1.1-0.1-1.6-0.4c-0.5-0.2-0.9-0.6-1.2-0.9v5.1H881.9z M883.5,67.6c0,1.3,0.3,2.3,0.8,3c0.5,0.6,1.2,1,2,1
		c0.8,0,1.5-0.3,2-1c0.6-0.7,0.8-1.7,0.8-3.1c0-1.3-0.3-2.3-0.8-3s-1.2-1-2-1c-0.8,0-1.4,0.4-2,1.1
		C883.8,65.3,883.5,66.3,883.5,67.6z"/>
	<path class="st5" d="M893.1,72.8V62.3h1.6v1.6c0.4-0.7,0.8-1.2,1.1-1.5c0.3-0.2,0.7-0.4,1.1-0.4c0.6,0,1.2,0.2,1.8,0.6l-0.6,1.6
		c-0.4-0.3-0.9-0.4-1.3-0.4c-0.4,0-0.7,0.1-1,0.4c-0.3,0.2-0.5,0.6-0.7,1c-0.2,0.6-0.3,1.3-0.3,2.1v5.5H893.1z"/>
	<path class="st5" d="M899.2,67.6c0-1.9,0.5-3.4,1.6-4.3c0.9-0.8,2-1.2,3.3-1.2c1.4,0,2.6,0.5,3.5,1.4c0.9,0.9,1.4,2.2,1.4,3.9
		c0,1.3-0.2,2.4-0.6,3.2s-1,1.4-1.8,1.8c-0.8,0.4-1.6,0.6-2.5,0.6c-1.5,0-2.7-0.5-3.6-1.4C899.6,70.7,899.2,69.3,899.2,67.6z
		 M901,67.6c0,1.3,0.3,2.3,0.9,3c0.6,0.7,1.3,1,2.2,1c0.9,0,1.6-0.3,2.2-1c0.6-0.7,0.9-1.7,0.9-3.1c0-1.3-0.3-2.3-0.9-2.9
		c-0.6-0.7-1.3-1-2.2-1c-0.9,0-1.6,0.3-2.2,1C901.3,65.2,901,66.2,901,67.6z"/>
	<path class="st5" d="M914.9,71.2l0.3,1.6c-0.5,0.1-0.9,0.2-1.3,0.2c-0.6,0-1.1-0.1-1.5-0.3c-0.4-0.2-0.6-0.5-0.7-0.8
		c-0.1-0.3-0.2-1-0.2-2.1v-6h-1.3v-1.4h1.3v-2.6l1.8-1.1v3.7h1.8v1.4h-1.8v6.1c0,0.5,0,0.8,0.1,1s0.2,0.3,0.3,0.3
		c0.1,0.1,0.3,0.1,0.6,0.1C914.3,71.3,914.6,71.3,914.9,71.2z"/>
	<path class="st5" d="M923.8,69.4l1.8,0.2c-0.3,1.1-0.8,1.9-1.6,2.5c-0.8,0.6-1.8,0.9-3,0.9c-1.5,0-2.7-0.5-3.6-1.4
		c-0.9-0.9-1.3-2.3-1.3-4c0-1.8,0.5-3.1,1.4-4.1c0.9-1,2.1-1.5,3.5-1.5c1.4,0,2.5,0.5,3.4,1.4c0.9,1,1.3,2.3,1.3,4
		c0,0.1,0,0.3,0,0.5h-7.8c0.1,1.2,0.4,2,1,2.6c0.6,0.6,1.3,0.9,2.2,0.9c0.7,0,1.2-0.2,1.7-0.5C923.2,70.7,923.6,70.2,923.8,69.4z
		 M918,66.6h5.8c-0.1-0.9-0.3-1.5-0.7-2c-0.6-0.7-1.3-1-2.2-1c-0.8,0-1.5,0.3-2.1,0.8C918.4,64.9,918.1,65.7,918,66.6z"/>
	<path class="st5" d="M927.6,73.7l1.7,0.3c0.1,0.5,0.3,0.9,0.6,1.2c0.4,0.3,1,0.5,1.8,0.5c0.8,0,1.5-0.2,1.9-0.5
		c0.4-0.3,0.7-0.8,0.9-1.4c0.1-0.4,0.1-1.1,0.1-2.3c-0.8,0.9-1.7,1.4-2.9,1.4c-1.4,0-2.6-0.5-3.3-1.6c-0.8-1-1.2-2.3-1.2-3.7
		c0-1,0.2-1.9,0.5-2.8s0.9-1.5,1.6-2c0.7-0.5,1.5-0.7,2.4-0.7c1.2,0,2.3,0.5,3.1,1.5v-1.3h1.6v9.1c0,1.6-0.2,2.8-0.5,3.5
		s-0.9,1.2-1.6,1.6c-0.7,0.4-1.6,0.6-2.7,0.6c-1.3,0-2.3-0.3-3-0.8C927.9,75.7,927.5,74.8,927.6,73.7z M929,67.4
		c0,1.4,0.3,2.4,0.8,3c0.5,0.6,1.2,0.9,2.1,0.9c0.8,0,1.5-0.3,2.1-0.9c0.6-0.6,0.8-1.6,0.8-3c0-1.3-0.3-2.2-0.9-2.9s-1.3-1-2.1-1
		c-0.8,0-1.5,0.3-2,1C929.3,65.2,929,66.1,929,67.4z"/>
	<path class="st5" d="M939.1,60.4v-2h1.8v2H939.1z M939.1,72.8V62.3h1.8v10.5H939.1z"/>
	<path class="st5" d="M950.4,72.8v-1.3c-0.7,1-1.6,1.6-2.9,1.6c-0.8,0-1.6-0.2-2.3-0.7s-1.2-1.1-1.6-1.9s-0.6-1.8-0.6-2.8
		c0-1,0.2-2,0.5-2.8s0.9-1.5,1.6-2c0.7-0.5,1.5-0.7,2.3-0.7c0.6,0,1.2,0.1,1.7,0.4s0.9,0.6,1.2,1v-5.2h1.8v14.5H950.4z M944.8,67.6
		c0,1.3,0.3,2.3,0.8,3c0.6,0.7,1.2,1,2,1c0.8,0,1.4-0.3,2-1c0.5-0.6,0.8-1.6,0.8-2.9c0-1.4-0.3-2.5-0.8-3.2c-0.6-0.7-1.2-1-2-1
		c-0.8,0-1.4,0.3-2,1S944.8,66.2,944.8,67.6z"/>
	<path class="st5" d="M961.7,71.5c-0.7,0.6-1.3,1-1.9,1.2s-1.3,0.3-2,0.3c-1.2,0-2-0.3-2.7-0.8c-0.6-0.6-0.9-1.3-0.9-2.2
		c0-0.5,0.1-1,0.4-1.4c0.2-0.4,0.5-0.8,0.9-1s0.8-0.5,1.3-0.6c0.3-0.1,0.9-0.2,1.6-0.3c1.4-0.2,2.5-0.4,3.2-0.6c0-0.2,0-0.4,0-0.5
		c0-0.7-0.2-1.2-0.5-1.5c-0.5-0.4-1.1-0.6-2-0.6c-0.8,0-1.5,0.1-1.8,0.4c-0.4,0.3-0.7,0.8-0.9,1.6l-1.7-0.2c0.2-0.7,0.4-1.3,0.8-1.8
		c0.4-0.5,0.9-0.8,1.6-1.1s1.5-0.4,2.4-0.4c0.9,0,1.6,0.1,2.2,0.3c0.6,0.2,1,0.5,1.2,0.8s0.4,0.7,0.6,1.2c0.1,0.3,0.1,0.8,0.1,1.6
		v2.4c0,1.7,0,2.7,0.1,3.1c0.1,0.4,0.2,0.9,0.4,1.3H962C961.9,72.4,961.7,72,961.7,71.5z M961.5,67.6c-0.6,0.3-1.6,0.5-2.9,0.7
		c-0.7,0.1-1.2,0.2-1.5,0.4c-0.3,0.1-0.5,0.3-0.7,0.6c-0.2,0.3-0.2,0.5-0.2,0.8c0,0.5,0.2,0.9,0.5,1.2c0.4,0.3,0.9,0.5,1.6,0.5
		c0.7,0,1.3-0.1,1.8-0.4s0.9-0.7,1.2-1.2c0.2-0.4,0.3-1,0.3-1.8V67.6z"/>
	<path class="st5" d="M965.4,69.7l1.8-0.3c0.1,0.7,0.4,1.2,0.8,1.6c0.5,0.4,1.1,0.6,1.9,0.6c0.8,0,1.4-0.2,1.8-0.5
		c0.4-0.3,0.6-0.7,0.6-1.2c0-0.4-0.2-0.7-0.5-0.9c-0.2-0.2-0.8-0.4-1.8-0.6c-1.3-0.3-2.2-0.6-2.7-0.9c-0.5-0.2-0.9-0.6-1.1-1
		c-0.3-0.4-0.4-0.9-0.4-1.4c0-0.5,0.1-0.9,0.3-1.3c0.2-0.4,0.5-0.7,0.9-1c0.3-0.2,0.7-0.4,1.1-0.5c0.5-0.1,1-0.2,1.5-0.2
		c0.8,0,1.5,0.1,2.2,0.4c0.6,0.2,1.1,0.6,1.4,1c0.3,0.4,0.5,0.9,0.6,1.6l-1.7,0.2c-0.1-0.5-0.3-1-0.7-1.3c-0.4-0.3-0.9-0.5-1.6-0.5
		c-0.8,0-1.4,0.1-1.7,0.4c-0.3,0.3-0.5,0.6-0.5,0.9c0,0.2,0.1,0.4,0.2,0.6c0.1,0.2,0.4,0.3,0.7,0.5c0.2,0.1,0.7,0.2,1.6,0.5
		c1.3,0.3,2.1,0.6,2.6,0.8c0.5,0.2,0.9,0.5,1.2,0.9c0.3,0.4,0.4,0.9,0.4,1.5c0,0.6-0.2,1.1-0.5,1.7c-0.3,0.5-0.8,0.9-1.5,1.2
		c-0.7,0.3-1.4,0.4-2.2,0.4c-1.4,0-2.4-0.3-3.1-0.8C966,71.6,965.6,70.8,965.4,69.7z"/>
</g>
<circle class="st5" cx="846.1" cy="56.9" r="23"/>
<path class="st2" d="M310.3,40.4c0,1.1,0,2.1,0,3.2c0,0.3,0.1,0.3,0.3,0.3c1.4,0.1,2.8,0.3,4.1,0.7c0.4,0.2,0.9,0.3,1.3,0.5
	c-0.4,1.5-0.8,2.9-1.2,4.4c-0.4-0.2-0.8-0.4-1.2-0.5c-1.7-0.7-3.5-1-5.4-0.8c-0.7,0.1-1.4,0.3-1.9,0.9c-0.5,0.6-0.7,1.6-0.1,2.3
	c0.5,0.6,1.1,1,1.8,1.3c1.2,0.5,2.4,1,3.6,1.5c1.3,0.5,2.6,1.2,3.6,2.2c0.9,0.9,1.5,2,1.8,3.2c0.3,1.6,0.2,3.1-0.5,4.6
	c-0.5,1.1-1.3,2-2.3,2.7c-1.1,0.8-2.4,1.3-3.7,1.5c-0.2,0-0.3,0.1-0.3,0.4c0,1.3,0,2.5,0,3.8c-1.3,0-2.6,0-3.9,0c0-0.3,0-0.7,0-1
	c0-0.8,0-1.6,0-2.5c0-0.2,0-0.3-0.3-0.3c-1.4-0.1-2.9-0.3-4.2-0.8c-0.7-0.2-1.4-0.5-2.1-0.8c-0.2-0.1-0.1-0.3-0.1-0.4
	c0.2-0.9,0.5-1.8,0.7-2.6c0.1-0.5,0.3-1.1,0.4-1.7c0.3,0.1,0.5,0.2,0.7,0.4c1.5,0.7,3.1,1.2,4.7,1.3c1.1,0.1,2.1,0.1,3.2-0.3
	c0.7-0.3,1.4-0.7,1.7-1.5c0.3-0.7,0-1.7-0.6-2.2c-0.9-0.9-2.1-1.3-3.2-1.7c-1.3-0.5-2.6-0.9-3.8-1.6c-1.1-0.7-2.1-1.5-2.8-2.6
	c-0.5-0.8-0.7-1.6-0.8-2.5c-0.1-1.2,0.1-2.3,0.6-3.4c0.4-0.9,1-1.7,1.8-2.3c1.2-0.9,2.5-1.5,4-1.8c0.2,0,0.3-0.1,0.3-0.3
	c0-1.2,0-2.3,0-3.5C307.7,40.4,309,40.4,310.3,40.4z"/>
<path class="st2" d="M469.8,68c-3.9,0-7.8,0-11.8,0c-0.7,0-1.3-0.1-1.9-0.4c-1.5-0.7-2.2-2-2.2-3.6c0-4.6,0-9.2,0-13.9
	c0-2.1,1.8-4.3,4.3-4.3c7.7,0,15.4,0,23.1,0c2,0,3.8,1.4,4.2,3.4c0.1,0.3,0.1,0.6,0.1,0.9c0,4.6,0,9.1,0,13.7c0,1.7-0.7,3-2.2,3.7
	c-0.6,0.3-1.2,0.4-1.9,0.4C477.7,68,473.7,68,469.8,68z M455.3,54.2c0,0.1,0,0.2,0,0.3c0,3.2,0,6.4,0,9.6c0,0.3,0,0.5,0.1,0.8
	c0.3,1.2,1.3,1.8,2.7,1.8c7.8,0,15.6,0,23.5,0c0.3,0,0.6,0,0.8-0.1c1.2-0.3,1.9-1.3,1.9-2.6c0-3.1,0-6.3,0-9.4c0-0.1,0-0.2,0-0.3
	C474.6,54.2,465,54.2,455.3,54.2z M484.3,50.7c0-0.4,0-0.8,0-1.1c-0.2-1.1-1.4-2.3-2.9-2.3c-7.7,0-15.4,0-23.1,0
	c-0.9,0-1.6,0.3-2.1,0.9c-0.7,0.7-0.9,1.6-0.8,2.5C465,50.7,474.6,50.7,484.3,50.7z"/>
<g>
	<path class="st2" d="M676.8,52.9c0.3-0.8,0.8-1,1.6-1c1.8,0,3.6,0,5.4,0c0.1,0,0.2,0,0.4,0c0-0.1,0-0.2,0-0.4c0-1.1,0-2.2,0-3.3
		c0-1.3,0.8-2.3,2-2.5c0.2,0,0.4,0,0.6,0c2.8,0,5.5,0,8.3,0c1,0,1.8,0.3,2.5,1c1.8,1.6,3.1,3.4,4.1,5.5c0.1,0.1,0.2,0.3,0.4,0.3
		c2,0.7,4.1,1.3,6.1,1.9c0.3,0.1,0.4,0.3,0.4,0.5c0.1,0.7,0.1,1.4,0.2,2.2c0,0.7,0,1.4,0,2.1c0,0.7-0.5,1.2-1.2,1.2
		c-0.4,0-0.8,0-1.2,0c-0.2-1.4-0.9-2.4-2.1-3.2c-0.8-0.5-1.7-0.7-2.7-0.6c-1.8,0.2-3.5,1.5-3.9,3.7c-2.9,0-5.7,0-8.6,0
		c-0.2-1.3-0.9-2.4-2-3.1c-0.8-0.5-1.7-0.7-2.6-0.7c-1.9,0.1-3.3,1.3-4.1,3.8c-0.8,0-1.7,0-2.5,0c-0.6,0-0.9-0.4-1.1-1
		C676.8,57.4,676.8,55.2,676.8,52.9z M692.8,48.2c0,1.3,0,2.5,0,3.7c2,0,3.9,0,5.9,0c-0.5-1.1-2-2.8-2.9-3.5
		c-0.1-0.1-0.3-0.2-0.4-0.2C694.5,48.2,693.7,48.2,692.8,48.2z M690.3,48.3c-1.2,0-2.5,0-3.7,0c0,1.2,0,2.5,0,3.7c1.2,0,2.5,0,3.7,0
		C690.3,50.7,690.3,49.5,690.3,48.3z"/>
	<path class="st2" d="M684.4,64.3c-0.4-0.1-0.8-0.2-1.1-0.4c-1.2-0.6-1.8-2.1-1.5-3.3c0.3-1.4,1.5-2.4,2.9-2.4
		c1.3,0,2.4,0.7,2.9,1.9c0.5,1.1,0.2,2.5-0.6,3.4c-0.4,0.5-1,0.7-1.6,0.9c-0.1,0-0.1,0-0.2,0.1C684.9,64.3,684.7,64.3,684.4,64.3z"
		/>
	<path class="st2" d="M701.7,64.3c-0.6-0.2-1.2-0.4-1.7-0.8c-1.5-1.3-1.3-3.9,0.5-4.9c2-1.1,4.3,0,4.7,2.3c0.2,1.5-0.9,3-2.5,3.3
		c-0.1,0-0.1,0-0.2,0.1C702.2,64.3,702,64.3,701.7,64.3z"/>
</g>
<path class="st2" d="M845.9,43.1c0.3,0,0.7,0,1,0c0.1,0,0.1,0,0.2,0.1c1,0.2,1.9,0.6,2.6,1.3c0.8,0.7,1.3,1.6,1.4,2.6
	c0.1,0.7,0.1,1.5,0.1,2.3c0,0.1,0,0.2,0,0.3c0.1,0,0.2,0,0.3,0c1.2,0,2.5,0,3.7,0c0.5,0,0.8,0.2,0.9,0.7c0,0.1,0,0.3,0,0.4
	c0.2,1.8,0.3,3.6,0.5,5.4c0.2,2.2,0.4,4.4,0.6,6.6c0.2,1.7,0.3,3.4,0.5,5.1c0.1,0.5-0.1,0.9-0.6,1.2c-7.1,0-14.2,0-21.4,0
	c-0.4-0.2-0.7-0.5-0.6-1c0.1-1.1,0.2-2.2,0.3-3.3c0.2-2.4,0.4-4.8,0.7-7.3c0.2-2.3,0.4-4.6,0.6-7c0.1-0.6,0.3-0.9,1-0.9
	c1.2,0,2.4,0,3.7,0c0.1,0,0.2,0,0.3,0c0-0.5,0-1,0-1.5c0-0.4,0-0.8,0.1-1.1c0.5-1.9,1.7-3.1,3.6-3.7
	C845.4,43.2,845.6,43.2,845.9,43.1z M841.3,51.2c-1,0-1.9,0-2.9,0c-0.2,0-0.2,0.1-0.2,0.2c-0.1,0.9-0.1,1.7-0.2,2.6
	c-0.2,2-0.4,4-0.6,6c-0.2,2.1-0.4,4.2-0.6,6.3c0,0.3-0.1,0.7-0.1,1c6.4,0,12.8,0,19.2,0c0-0.1,0-0.1,0-0.2c-0.1-1.1-0.2-2.2-0.3-3.3
	c-0.2-1.8-0.3-3.6-0.5-5.4c-0.2-2.4-0.4-4.7-0.6-7.1c0-0.2-0.1-0.2-0.2-0.2c-1,0-1.9,0-2.9,0 M843.2,53.1 M843.1,51.2 M849.6,49.6
	c0-0.5,0-1.1,0-1.6c0-0.2,0-0.5-0.1-0.7c-0.3-1.2-1-2-2.2-2.4c-1.7-0.6-3.7,0.5-4.1,2.3c-0.2,0.8-0.1,1.6-0.1,2.4c0,0,0,0,0,0
	C845.3,49.6,847.4,49.6,849.6,49.6z"/>
<path class="st158" d="M850.7,55.3c0.5,0.6,1,1,1.4,1.5c-2.4,2.4-4.8,4.8-7.2,7.2c-1.4-1.4-2.8-2.8-4.2-4.3c0.4-0.4,0.9-0.8,1.5-1.3
	c0.8,0.9,1.8,1.9,2.7,2.8C846.8,59.2,848.7,57.3,850.7,55.3z"/>
<g>
	<path class="st5" d="M725.7,56V41.5h10.5v1.7h-8.5v4.4h8v1.7h-8v4.9h8.9V56H725.7z"/>
	<path class="st5" d="M738.9,56V45.5h1.6V47c0.8-1.2,1.9-1.7,3.3-1.7c0.6,0,1.2,0.1,1.7,0.3c0.5,0.2,0.9,0.5,1.2,0.9
		c0.3,0.4,0.4,0.8,0.6,1.3c0.1,0.3,0.1,0.9,0.1,1.7V56h-1.8v-6.4c0-0.7-0.1-1.3-0.2-1.6c-0.1-0.4-0.4-0.6-0.7-0.9
		c-0.4-0.2-0.8-0.3-1.2-0.3c-0.8,0-1.4,0.2-2,0.7c-0.5,0.5-0.8,1.4-0.8,2.7V56H738.9z"/>
	<path class="st5" d="M753,56l-4-10.5h1.9l2.2,6.3c0.2,0.7,0.5,1.4,0.7,2.1c0.2-0.6,0.4-1.2,0.7-2l2.3-6.4h1.8l-4,10.5H753z"/>
	<path class="st5" d="M760.8,44.2l1.3-2.8h2.3l-2.2,2.8H760.8z M760.9,56V45.5h1.8V56H760.9z"/>
	<path class="st5" d="M765.2,50.8c0-1.9,0.5-3.4,1.6-4.3c0.9-0.8,2-1.2,3.3-1.2c1.4,0,2.6,0.5,3.5,1.4c0.9,0.9,1.4,2.2,1.4,3.9
		c0,1.3-0.2,2.4-0.6,3.2s-1,1.4-1.8,1.8c-0.8,0.4-1.6,0.6-2.5,0.6c-1.5,0-2.7-0.5-3.6-1.4C765.6,53.9,765.2,52.5,765.2,50.8z
		 M767,50.8c0,1.3,0.3,2.3,0.9,3c0.6,0.7,1.3,1,2.2,1c0.9,0,1.6-0.3,2.2-1c0.6-0.7,0.9-1.7,0.9-3.1c0-1.3-0.3-2.3-0.9-2.9
		c-0.6-0.7-1.3-1-2.2-1c-0.9,0-1.6,0.3-2.2,1C767.3,48.4,767,49.4,767,50.8z"/>
	<path class="st5" d="M776.4,52.9l1.8-0.3c0.1,0.7,0.4,1.2,0.8,1.6c0.5,0.4,1.1,0.6,1.9,0.6c0.8,0,1.4-0.2,1.8-0.5
		c0.4-0.3,0.6-0.7,0.6-1.2c0-0.4-0.2-0.7-0.5-0.9c-0.2-0.2-0.8-0.4-1.8-0.6c-1.3-0.3-2.2-0.6-2.7-0.9c-0.5-0.2-0.9-0.6-1.1-1
		c-0.3-0.4-0.4-0.9-0.4-1.4c0-0.5,0.1-0.9,0.3-1.3c0.2-0.4,0.5-0.7,0.9-1c0.3-0.2,0.7-0.4,1.1-0.5c0.5-0.1,1-0.2,1.5-0.2
		c0.8,0,1.5,0.1,2.2,0.4c0.6,0.2,1.1,0.6,1.4,1c0.3,0.4,0.5,0.9,0.6,1.6l-1.7,0.2c-0.1-0.5-0.3-1-0.7-1.3c-0.4-0.3-0.9-0.5-1.6-0.5
		c-0.8,0-1.4,0.1-1.7,0.4c-0.3,0.3-0.5,0.6-0.5,0.9c0,0.2,0.1,0.4,0.2,0.6c0.1,0.2,0.4,0.3,0.7,0.5c0.2,0.1,0.7,0.2,1.6,0.5
		c1.3,0.3,2.1,0.6,2.6,0.8c0.5,0.2,0.9,0.5,1.2,0.9c0.3,0.4,0.4,0.9,0.4,1.5c0,0.6-0.2,1.1-0.5,1.7c-0.3,0.5-0.8,0.9-1.5,1.2
		c-0.7,0.3-1.4,0.4-2.2,0.4c-1.4,0-2.4-0.3-3.1-0.8C777,54.8,776.6,54,776.4,52.9z"/>
	<path class="st5" d="M724.7,70.3l1.8-0.3c0.1,0.7,0.4,1.2,0.8,1.6c0.5,0.4,1.1,0.6,1.9,0.6c0.8,0,1.4-0.2,1.8-0.5
		c0.4-0.3,0.6-0.7,0.6-1.2c0-0.4-0.2-0.7-0.5-0.9c-0.2-0.2-0.8-0.4-1.8-0.6c-1.3-0.3-2.2-0.6-2.7-0.9c-0.5-0.2-0.9-0.6-1.1-1
		c-0.3-0.4-0.4-0.9-0.4-1.4c0-0.5,0.1-0.9,0.3-1.3c0.2-0.4,0.5-0.7,0.9-1c0.3-0.2,0.7-0.4,1.1-0.5c0.5-0.1,1-0.2,1.5-0.2
		c0.8,0,1.5,0.1,2.2,0.4c0.6,0.2,1.1,0.6,1.4,1c0.3,0.4,0.5,0.9,0.6,1.6l-1.7,0.2c-0.1-0.5-0.3-1-0.7-1.3c-0.4-0.3-0.9-0.5-1.6-0.5
		c-0.8,0-1.4,0.1-1.7,0.4c-0.3,0.3-0.5,0.6-0.5,0.9c0,0.2,0.1,0.4,0.2,0.6c0.1,0.2,0.4,0.3,0.7,0.5c0.2,0.1,0.7,0.2,1.6,0.5
		c1.3,0.3,2.1,0.6,2.6,0.8c0.5,0.2,0.9,0.5,1.2,0.9c0.3,0.4,0.4,0.9,0.4,1.5c0,0.6-0.2,1.1-0.5,1.7c-0.3,0.5-0.8,0.9-1.5,1.2
		c-0.7,0.3-1.4,0.4-2.2,0.4c-1.4,0-2.4-0.3-3.1-0.8C725.4,72.3,724.9,71.4,724.7,70.3z"/>
	<path class="st5" d="M742.7,70.1l1.8,0.2c-0.3,1.1-0.8,1.9-1.6,2.5c-0.8,0.6-1.8,0.9-3,0.9c-1.5,0-2.7-0.5-3.6-1.4
		c-0.9-0.9-1.3-2.3-1.3-4c0-1.8,0.5-3.1,1.4-4.1c0.9-1,2.1-1.5,3.5-1.5c1.4,0,2.5,0.5,3.4,1.4c0.9,1,1.3,2.3,1.3,4
		c0,0.1,0,0.3,0,0.5h-7.8c0.1,1.2,0.4,2,1,2.6c0.6,0.6,1.3,0.9,2.2,0.9c0.7,0,1.2-0.2,1.7-0.5C742.1,71.4,742.4,70.8,742.7,70.1z
		 M736.9,67.2h5.8c-0.1-0.9-0.3-1.5-0.7-2c-0.6-0.7-1.3-1-2.2-1c-0.8,0-1.5,0.3-2.1,0.8C737.2,65.6,736.9,66.3,736.9,67.2z"/>
	<path class="st5" d="M746.4,74.3l1.7,0.3c0.1,0.5,0.3,0.9,0.6,1.2c0.4,0.3,1,0.5,1.8,0.5c0.8,0,1.5-0.2,1.9-0.5
		c0.4-0.3,0.7-0.8,0.9-1.4c0.1-0.4,0.1-1.1,0.1-2.3c-0.8,0.9-1.7,1.4-2.9,1.4c-1.4,0-2.6-0.5-3.3-1.6c-0.8-1-1.2-2.3-1.2-3.7
		c0-1,0.2-1.9,0.5-2.8s0.9-1.5,1.6-2c0.7-0.5,1.5-0.7,2.4-0.7c1.2,0,2.3,0.5,3.1,1.5V63h1.6V72c0,1.6-0.2,2.8-0.5,3.5
		s-0.9,1.2-1.6,1.6c-0.7,0.4-1.6,0.6-2.7,0.6c-1.3,0-2.3-0.3-3-0.8C746.8,76.3,746.4,75.4,746.4,74.3z M747.9,68
		c0,1.4,0.3,2.4,0.8,3c0.5,0.6,1.2,0.9,2.1,0.9c0.8,0,1.5-0.3,2.1-0.9c0.6-0.6,0.8-1.6,0.8-3c0-1.3-0.3-2.2-0.9-2.9s-1.3-1-2.1-1
		c-0.8,0-1.5,0.3-2,1C748.2,65.8,747.9,66.8,747.9,68z"/>
	<path class="st5" d="M764.9,73.4v-1.5c-0.8,1.2-1.9,1.8-3.3,1.8c-0.6,0-1.2-0.1-1.7-0.4c-0.5-0.2-0.9-0.5-1.2-0.9
		c-0.3-0.4-0.4-0.8-0.5-1.3c-0.1-0.3-0.1-0.9-0.1-1.7V63h1.8v5.8c0,0.9,0,1.6,0.1,1.9c0.1,0.5,0.3,0.8,0.7,1.1s0.8,0.4,1.3,0.4
		c0.5,0,1-0.1,1.5-0.4c0.5-0.3,0.8-0.6,1-1.1c0.2-0.5,0.3-1.2,0.3-2V63h1.8v10.5H764.9z"/>
	<path class="st5" d="M769.2,73.4V63h1.6v1.6c0.4-0.7,0.8-1.2,1.1-1.5c0.3-0.2,0.7-0.4,1.1-0.4c0.6,0,1.2,0.2,1.8,0.6l-0.6,1.6
		c-0.4-0.3-0.9-0.4-1.3-0.4c-0.4,0-0.7,0.1-1,0.4c-0.3,0.2-0.5,0.6-0.7,1c-0.2,0.6-0.3,1.3-0.3,2.1v5.5H769.2z"/>
	<path class="st5" d="M775.3,68.2c0-1.9,0.5-3.4,1.6-4.3c0.9-0.8,2-1.2,3.3-1.2c1.4,0,2.6,0.5,3.5,1.4c0.9,0.9,1.4,2.2,1.4,3.9
		c0,1.3-0.2,2.4-0.6,3.2s-1,1.4-1.8,1.8c-0.8,0.4-1.6,0.6-2.5,0.6c-1.5,0-2.7-0.5-3.6-1.4C775.8,71.3,775.3,70,775.3,68.2z
		 M777.1,68.2c0,1.3,0.3,2.3,0.9,3c0.6,0.7,1.3,1,2.2,1c0.9,0,1.6-0.3,2.2-1c0.6-0.7,0.9-1.7,0.9-3.1c0-1.3-0.3-2.3-0.9-2.9
		c-0.6-0.7-1.3-1-2.2-1c-0.9,0-1.6,0.3-2.2,1C777.4,65.9,777.1,66.9,777.1,68.2z"/>
	<path class="st5" d="M786.5,70.3l1.8-0.3c0.1,0.7,0.4,1.2,0.8,1.6c0.5,0.4,1.1,0.6,1.9,0.6c0.8,0,1.4-0.2,1.8-0.5
		c0.4-0.3,0.6-0.7,0.6-1.2c0-0.4-0.2-0.7-0.5-0.9c-0.2-0.2-0.8-0.4-1.8-0.6c-1.3-0.3-2.2-0.6-2.7-0.9c-0.5-0.2-0.9-0.6-1.1-1
		c-0.3-0.4-0.4-0.9-0.4-1.4c0-0.5,0.1-0.9,0.3-1.3c0.2-0.4,0.5-0.7,0.9-1c0.3-0.2,0.7-0.4,1.1-0.5c0.5-0.1,1-0.2,1.5-0.2
		c0.8,0,1.5,0.1,2.2,0.4c0.6,0.2,1.1,0.6,1.4,1c0.3,0.4,0.5,0.9,0.6,1.6l-1.7,0.2c-0.1-0.5-0.3-1-0.7-1.3c-0.4-0.3-0.9-0.5-1.6-0.5
		c-0.8,0-1.4,0.1-1.7,0.4c-0.3,0.3-0.5,0.6-0.5,0.9c0,0.2,0.1,0.4,0.2,0.6c0.1,0.2,0.4,0.3,0.7,0.5c0.2,0.1,0.7,0.2,1.6,0.5
		c1.3,0.3,2.1,0.6,2.6,0.8c0.5,0.2,0.9,0.5,1.2,0.9c0.3,0.4,0.4,0.9,0.4,1.5c0,0.6-0.2,1.1-0.5,1.7c-0.3,0.5-0.8,0.9-1.5,1.2
		c-0.7,0.3-1.4,0.4-2.2,0.4c-1.4,0-2.4-0.3-3.1-0.8C787.1,72.3,786.7,71.4,786.5,70.3z"/>
</g>
</svg>
