<?xml version="1.0" encoding="utf-8"?>
<!-- Generator: Adobe Illustrator 21.0.0, SVG Export Plug-In . SVG Version: 6.00 Build 0)  -->
<svg version="1.1" id="Capa_1" xmlns="http://www.w3.org/2000/svg" xmlns:xlink="http://www.w3.org/1999/xlink" x="0px" y="0px"
	 viewBox="0 0 326.1 79" style="enable-background:new 0 0 326.1 79;" xml:space="preserve">
<style type="text/css">
	.st0{fill:#F6F6F6;}
	.st1{fill:#FFFFFF;stroke:#706F6F;stroke-width:0.5;stroke-miterlimit:10;}
	.st2{fill:#F29100;}
	.st3{fill:#DADADA;}
	.st4{fill:#EA5B0C;}
	.st5{fill:#FFFFFF;}
	.st6{fill:#706F6F;}
	.st7{fill:#EDEDED;}
	.st8{fill:#F28321;}
	.st9{fill:#B2B2B2;}
	.st10{fill:url(#SVGID_1_);}
	.st11{opacity:0.4;fill:#EA5B0C;}
	.st12{fill:#606060;}
	.st13{fill:none;}
	.st14{fill:#808080;}
	.st15{fill:#FFFFFF;stroke:#000000;stroke-miterlimit:10;}
	.st16{fill:#9D9D9C;}
	.st17{fill:none;stroke:#1D1D1B;stroke-width:0.25;stroke-miterlimit:10;}
	.st18{fill:none;stroke:#FFFFFF;stroke-miterlimit:10;}
	.st19{fill:#DADADA;stroke:#878787;stroke-miterlimit:10;}
	.st20{fill:none;stroke:#C6C6C6;stroke-miterlimit:10;}
	.st21{fill:none;stroke:#B2B2B2;stroke-miterlimit:10;}
	.st22{clip-path:url(#SVGID_3_);}
	.st23{fill:#B4707B;}
	.st24{fill:url(#SVGID_4_);}
	.st25{fill:url(#SVGID_5_);}
	.st26{clip-path:url(#SVGID_7_);}
	.st27{fill:#312783;}
	.st28{clip-path:url(#SVGID_9_);}
	.st29{fill:#FCEA10;}
	.st30{fill:url(#SVGID_10_);}
	.st31{opacity:0.5;fill:#EA5B0C;}
	.st32{clip-path:url(#SVGID_12_);}
	.st33{fill:#3AAA35;}
	.st34{clip-path:url(#SVGID_14_);}
	.st35{clip-path:url(#SVGID_16_);}
	.st36{clip-path:url(#SVGID_18_);}
	.st37{clip-path:url(#SVGID_20_);}
	.st38{clip-path:url(#SVGID_22_);}
	.st39{clip-path:url(#SVGID_24_);}
	.st40{clip-path:url(#SVGID_26_);}
	.st41{clip-path:url(#SVGID_28_);}
	.st42{clip-path:url(#SVGID_30_);}
	.st43{clip-path:url(#SVGID_32_);}
	.st44{clip-path:url(#SVGID_34_);}
	.st45{clip-path:url(#SVGID_36_);}
	.st46{clip-path:url(#SVGID_38_);}
	.st47{clip-path:url(#SVGID_40_);}
	.st48{clip-path:url(#SVGID_42_);}
	.st49{clip-path:url(#SVGID_44_);}
	.st50{fill:url(#SVGID_47_);}
	.st51{clip-path:url(#SVGID_49_);}
	.st52{opacity:0.5;}
	.st53{fill:none;stroke:#F39200;stroke-miterlimit:10;}
	.st54{fill:none;stroke:url(#SVGID_50_);stroke-miterlimit:10;}
	.st55{fill:none;stroke:#F29100;stroke-miterlimit:10;}
	.st56{fill:#FFFFFF;stroke:#706F6F;stroke-miterlimit:10;}
	.st57{clip-path:url(#SVGID_52_);}
	.st58{clip-path:url(#SVGID_54_);}
	.st59{clip-path:url(#SVGID_56_);}
	.st60{clip-path:url(#SVGID_58_);}
	.st61{clip-path:url(#SVGID_60_);}
	.st62{clip-path:url(#SVGID_62_);}
	.st63{clip-path:url(#SVGID_64_);}
	.st64{clip-path:url(#SVGID_66_);}
	.st65{clip-path:url(#SVGID_68_);}
	.st66{clip-path:url(#SVGID_70_);}
	.st67{fill:#EDEDED;stroke:#878787;stroke-miterlimit:10;}
	.st68{clip-path:url(#SVGID_72_);}
	.st69{clip-path:url(#SVGID_74_);}
	.st70{fill:#95C11F;}
	.st71{fill:#009640;}
	.st72{fill:#E6007E;}
	.st73{fill:#7D4E24;}
	.st74{clip-path:url(#SVGID_76_);}
	.st75{clip-path:url(#SVGID_78_);}
	.st76{clip-path:url(#SVGID_80_);}
	.st77{clip-path:url(#SVGID_82_);}
	.st78{clip-path:url(#SVGID_84_);}
	.st79{clip-path:url(#SVGID_86_);}
	.st80{clip-path:url(#SVGID_88_);}
	.st81{clip-path:url(#SVGID_90_);}
	.st82{clip-path:url(#SVGID_92_);}
	.st83{fill:url(#SVGID_93_);}
	.st84{clip-path:url(#SVGID_95_);}
	.st85{clip-path:url(#SVGID_97_);}
	.st86{clip-path:url(#SVGID_99_);}
	.st87{clip-path:url(#SVGID_101_);}
	.st88{clip-path:url(#SVGID_103_);}
	.st89{clip-path:url(#SVGID_105_);}
	.st90{clip-path:url(#SVGID_107_);}
	.st91{clip-path:url(#SVGID_109_);}
	.st92{clip-path:url(#SVGID_111_);}
	.st93{clip-path:url(#SVGID_113_);}
	.st94{clip-path:url(#SVGID_115_);}
	.st95{clip-path:url(#SVGID_117_);}
	.st96{fill:url(#SVGID_118_);}
	.st97{fill:#CB3B29;}
	.st98{fill:none;stroke:#FFFFFF;stroke-width:0.25;stroke-miterlimit:10;}
	.st99{opacity:0.7;}
	.st100{fill:none;stroke:#1D1D1B;stroke-width:2;stroke-miterlimit:10;}
	.st101{fill:none;stroke:#000000;stroke-width:2;stroke-miterlimit:10;}
	.st102{fill:none;stroke:#000000;stroke-miterlimit:10;}
	.st103{fill:url(#SVGID_119_);}
	.st104{fill:url(#SVGID_120_);}
	.st105{fill:url(#SVGID_121_);}
	.st106{clip-path:url(#SVGID_123_);}
	.st107{clip-path:url(#SVGID_125_);}
	.st108{fill:#EA5B0C;stroke:#EA5B0C;stroke-miterlimit:10;}
	.st109{clip-path:url(#SVGID_127_);}
	.st110{clip-path:url(#SVGID_129_);}
	.st111{clip-path:url(#SVGID_131_);}
	.st112{clip-path:url(#SVGID_133_);}
	.st113{clip-path:url(#SVGID_135_);}
	.st114{clip-path:url(#SVGID_137_);}
	.st115{fill:#878787;}
	.st116{clip-path:url(#SVGID_139_);}
	.st117{clip-path:url(#SVGID_141_);}
	.st118{clip-path:url(#SVGID_143_);}
	.st119{clip-path:url(#SVGID_145_);}
	.st120{clip-path:url(#SVGID_147_);}
	.st121{clip-path:url(#SVGID_149_);}
	.st122{clip-path:url(#SVGID_155_);}
	.st123{fill:#FFFFFF;stroke:#FFFFFF;stroke-miterlimit:10;}
	.st124{fill:#535353;}
	.st125{fill:#F9B233;}
	.st126{fill:none;stroke:#F9B233;stroke-miterlimit:10;}
	.st127{clip-path:url(#SVGID_157_);}
	.st128{clip-path:url(#SVGID_159_);}
	.st129{clip-path:url(#SVGID_161_);}
	.st130{clip-path:url(#SVGID_163_);}
	.st131{clip-path:url(#SVGID_165_);}
	.st132{clip-path:url(#SVGID_167_);}
	.st133{clip-path:url(#SVGID_169_);}
	.st134{clip-path:url(#SVGID_171_);}
	.st135{fill:url(#SVGID_172_);}
	.st136{clip-path:url(#SVGID_178_);}
	.st137{clip-path:url(#SVGID_182_);}
	.st138{fill:url(#SVGID_183_);}
	.st139{fill:url(#SVGID_184_);}
	.st140{stroke:#000000;stroke-miterlimit:10;}
	.st141{clip-path:url(#SVGID_186_);}
	.st142{clip-path:url(#SVGID_188_);}
	.st143{clip-path:url(#SVGID_190_);}
	.st144{clip-path:url(#SVGID_192_);}
	.st145{clip-path:url(#SVGID_194_);}
	.st146{clip-path:url(#SVGID_196_);}
	.st147{clip-path:url(#SVGID_198_);}
	.st148{clip-path:url(#SVGID_200_);}
	.st149{clip-path:url(#SVGID_202_);}
	.st150{clip-path:url(#SVGID_204_);}
	.st151{clip-path:url(#SVGID_206_);}
	.st152{clip-path:url(#SVGID_208_);}
	.st153{fill:#F39200;}
	.st154{fill:none;stroke:url(#SVGID_209_);stroke-miterlimit:10;}
	.st155{fill:#FFFFFF;stroke:#9D9D9C;stroke-width:0.75;stroke-miterlimit:10;}
	.st156{fill:#575756;}
	.st157{fill:none;stroke:#EA5B0C;stroke-width:0.75;stroke-miterlimit:10;}
	.st158{fill:#F29100;stroke:#F29100;stroke-miterlimit:10;}
</style>
<g>
	<path class="st13" d="M76.8,38.5c-0.5-0.5-1-0.9-1.6-1.2c-0.6-0.3-1.3-0.4-2-0.4c-0.7,0-1.4,0.1-2,0.4c-0.6,0.3-1.2,0.7-1.6,1.2
		c-0.5,0.5-0.8,1-1.1,1.7c-0.3,0.6-0.4,1.3-0.4,2c0,0.7,0.1,1.4,0.4,2c0.3,0.6,0.6,1.2,1.1,1.7c0.5,0.5,1,0.9,1.6,1.2
		c0.6,0.3,1.3,0.4,2,0.4c0.7,0,1.4-0.1,2-0.4c0.6-0.3,1.2-0.7,1.6-1.2c0.5-0.5,0.8-1.1,1.1-1.7s0.4-1.3,0.4-2c0-0.7-0.1-1.4-0.4-2
		S77.3,38.9,76.8,38.5z"/>
	<path class="st13" d="M51.6,39.5c0.3-0.4,0.5-0.8,0.5-1.3c0-0.5-0.2-0.9-0.5-1.3c-0.3-0.4-0.8-0.5-1.3-0.5H47V40h3.3
		C50.8,40,51.2,39.8,51.6,39.5z"/>
	<path class="st13" d="M50.5,44.2H47v3.7h3.5c0.5,0,0.9-0.2,1.3-0.5c0.4-0.4,0.5-0.8,0.5-1.3c0-0.5-0.2-0.9-0.5-1.3
		C51.4,44.4,51,44.2,50.5,44.2z"/>
	<path class="st13" d="M253.6,38.1c-0.4-0.5-1-0.9-1.6-1.1c-0.6-0.3-1.3-0.4-2-0.4c-0.7,0-1.4,0.1-2,0.4c-0.6,0.3-1.1,0.7-1.6,1.1
		c-0.4,0.5-0.8,1-1.1,1.7c-0.3,0.6-0.4,1.3-0.4,2c0,0.7,0.1,1.4,0.4,2c0.3,0.6,0.6,1.2,1.1,1.7c0.4,0.5,1,0.9,1.6,1.2
		c0.6,0.3,1.3,0.4,2,0.4c0.7,0,1.4-0.1,2-0.4c0.6-0.3,1.1-0.7,1.6-1.2c0.4-0.5,0.8-1,1-1.7c0.2-0.6,0.4-1.3,0.4-2
		c0-0.7-0.1-1.4-0.4-2C254.4,39.1,254.1,38.6,253.6,38.1z"/>
	<path d="M211.7,48.3c-0.3-0.3-0.6-0.5-1-0.6c-0.4-0.1-0.8-0.2-1.2-0.2c-0.4,0-0.8,0.1-1.2,0.2c-0.4,0.1-0.7,0.4-1,0.6
		c-0.3,0.3-0.5,0.6-0.7,1c-0.2,0.4-0.2,0.7-0.2,1.1c0,0.4,0.1,0.8,0.2,1.2c0.2,0.3,0.4,0.7,0.7,0.9c0.3,0.3,0.6,0.5,1,0.6
		c0.4,0.1,0.8,0.2,1.2,0.2c0.8,0,1.5-0.3,2.1-0.8c0.6-0.6,0.9-1.3,0.9-2.1c0-0.4-0.1-0.8-0.2-1.1C212.2,48.9,212,48.5,211.7,48.3z"
		/>
	<path d="M229.5,46.8c-0.7,0-1.3-0.1-1.9-0.4c-0.6-0.3-1.1-0.6-1.5-1.1c-0.4-0.5-0.8-1-1-1.6c-0.2-0.6-0.4-1.3-0.4-1.9
		c0-0.7,0.1-1.3,0.4-1.9c0.3-0.6,0.6-1.1,1-1.6c0.4-0.5,0.9-0.8,1.5-1.1c0.6-0.3,1.2-0.4,1.9-0.4c1,0,2,0.4,3.1,1.2l4.5-3.9
		c-1.2-1.1-2.4-1.8-3.7-2.4c-1.3-0.5-2.6-0.8-4-0.8c-1.5,0-2.9,0.3-4.2,0.9c-1.3,0.6-2.4,1.4-3.4,2.4c-1,1-1.7,2.1-2.3,3.5
		c-0.5,1.3-0.8,2.7-0.8,4.2c0,1.5,0.3,2.9,0.8,4.2c0.5,1.3,1.3,2.5,2.3,3.5c1,1,2.1,1.8,3.4,2.4c1.3,0.6,2.7,0.9,4.2,0.9
		c1.7,0,3.3-0.4,4.8-1.1c1.5-0.7,2.8-1.8,4-3.3l-4.6-3.8C232.4,46,231.1,46.8,229.5,46.8z"/>
	<path d="M257.8,34.1c-1-1-2.2-1.8-3.5-2.3c-1.3-0.6-2.8-0.9-4.3-0.9c-1.5,0-2.9,0.3-4.3,0.9c-1.3,0.6-2.5,1.4-3.5,2.3
		c-1,1-1.8,2.1-2.3,3.5c-0.6,1.3-0.9,2.7-0.9,4.2c0,1.5,0.3,2.9,0.9,4.3c0.6,1.3,1.4,2.5,2.3,3.5c1,1,2.2,1.8,3.5,2.3
		c1.3,0.6,2.8,0.9,4.3,0.9c1.5,0,2.9-0.3,4.3-0.9c1.3-0.6,2.5-1.3,3.5-2.3c1-1,1.8-2.1,2.3-3.5c0.6-1.3,0.9-2.8,0.9-4.3
		c0-1.5-0.3-2.9-0.9-4.3C259.6,36.2,258.8,35,257.8,34.1z M254.7,43.8c-0.2,0.6-0.6,1.2-1,1.7c-0.4,0.5-1,0.9-1.6,1.2
		c-0.6,0.3-1.3,0.4-2,0.4c-0.7,0-1.4-0.1-2-0.4c-0.6-0.3-1.1-0.7-1.6-1.2c-0.4-0.5-0.8-1-1.1-1.7c-0.3-0.6-0.4-1.3-0.4-2
		c0-0.7,0.1-1.4,0.4-2c0.3-0.6,0.6-1.2,1.1-1.7c0.4-0.5,1-0.9,1.6-1.1c0.6-0.3,1.3-0.4,2-0.4c0.7,0,1.4,0.1,2,0.4
		c0.6,0.3,1.1,0.7,1.6,1.1c0.4,0.5,0.8,1,1,1.7c0.2,0.6,0.4,1.3,0.4,2C255,42.5,254.9,43.1,254.7,43.8z"/>
	<path d="M279.8,31.5c-0.3,0-0.5,0.1-0.7,0.4l-4.5,7.5l-4.5-7.5c-0.2-0.2-0.4-0.4-0.7-0.4h-5.2v20.6h5.8v-9.6l3.8,6.2
		c0.1,0.2,0.2,0.3,0.4,0.3c0.2,0.1,0.3,0.1,0.4,0.1c0.1,0,0.3,0,0.4-0.1c0.2-0.1,0.3-0.2,0.4-0.3l3.8-6.2v9.6h5.8V31.5H279.8z"/>
	<path class="st14" d="M122.7,56.4c-0.1,0-0.2,0-0.3,0.1c-0.1,0.1-0.1,0.2-0.1,0.3c0,0.1,0,0.2,0.1,0.3c0.1,0.1,0.2,0.1,0.3,0.1
		c0.1,0,0.2,0,0.3-0.1c0.1-0.1,0.1-0.2,0.1-0.3c0-0.1,0-0.2-0.1-0.3C123,56.5,122.9,56.4,122.7,56.4z"/>
	<g>
		<path class="st13" d="M68.8,57.9c-0.2-0.1-0.5-0.2-0.8-0.2c-0.4,0-0.8,0.1-1.2,0.4c-0.2,0.2-0.4,0.5-0.5,0.9h3.4
			c-0.1-0.3-0.2-0.6-0.3-0.8C69.3,58.1,69.1,58,68.8,57.9z"/>
		<path class="st13" d="M127.3,57.7c-0.5,0-0.9,0.2-1.3,0.5c-0.4,0.4-0.5,0.8-0.5,1.3c0,0.3,0.1,0.6,0.2,0.9
			c0.2,0.3,0.4,0.5,0.6,0.7c0.3,0.2,0.6,0.2,0.9,0.2c0.3,0,0.6-0.1,0.9-0.2c0.3-0.2,0.5-0.4,0.6-0.7c0.2-0.3,0.2-0.6,0.2-0.9
			c0-0.5-0.2-0.9-0.5-1.3C128.2,57.9,127.8,57.7,127.3,57.7z"/>
		<path class="st13" d="M89.4,57.7c-0.5,0-0.9,0.2-1.3,0.5s-0.5,0.8-0.5,1.3c0,0.3,0.1,0.6,0.2,0.9c0.2,0.3,0.4,0.5,0.6,0.7
			c0.3,0.2,0.6,0.2,0.9,0.2c0.3,0,0.6-0.1,0.9-0.2c0.3-0.2,0.5-0.4,0.6-0.7c0.2-0.3,0.2-0.6,0.2-0.9c0-0.5-0.2-0.9-0.5-1.3
			C90.3,57.9,89.9,57.7,89.4,57.7z"/>
		<path class="st13" d="M108.8,57.9c-0.2-0.1-0.5-0.2-0.8-0.2c-0.4,0-0.8,0.1-1.2,0.4c-0.2,0.2-0.4,0.5-0.5,0.9h3.4
			c-0.1-0.3-0.2-0.6-0.3-0.8C109.3,58.1,109.1,58,108.8,57.9z"/>
		<path class="st13" d="M52.8,57.7c-0.3,0-0.6,0.1-0.9,0.2c-0.3,0.2-0.5,0.4-0.7,0.7c-0.2,0.3-0.2,0.6-0.2,0.9
			c0,0.3,0.1,0.6,0.2,0.9c0.2,0.3,0.4,0.5,0.7,0.7c0.3,0.2,0.6,0.2,0.9,0.2c0.3,0,0.6-0.1,0.9-0.2c0.3-0.2,0.5-0.4,0.7-0.7
			c0.2-0.3,0.2-0.6,0.2-0.9c0-0.5-0.2-1-0.5-1.3C53.7,57.9,53.3,57.7,52.8,57.7z"/>
		<polygon class="st14" points="47.6,55.7 45.1,60.7 42.6,55.7 42.5,55.7 41.6,61.8 42.2,61.8 42.8,57.4 45,61.8 45.2,61.8 
			47.4,57.4 48,61.8 48.6,61.8 47.7,55.7 		"/>
		<path class="st14" d="M54.5,58.1c-0.2-0.3-0.5-0.6-0.8-0.7c-0.3-0.2-0.6-0.2-1-0.2c-0.6,0-1.2,0.2-1.7,0.7c-0.5,0.5-0.7,1-0.7,1.7
			c0,0.7,0.2,1.2,0.7,1.7c0.5,0.5,1,0.7,1.7,0.7c0.4,0,0.7-0.1,1-0.2c0.3-0.2,0.6-0.4,0.8-0.7v0.8h0.6v-4.6h-0.6V58.1z M54.4,60.5
			c-0.2,0.3-0.4,0.5-0.7,0.7c-0.3,0.2-0.6,0.2-0.9,0.2c-0.3,0-0.6-0.1-0.9-0.2c-0.3-0.2-0.5-0.4-0.7-0.7c-0.2-0.3-0.2-0.6-0.2-0.9
			c0-0.3,0.1-0.6,0.2-0.9c0.2-0.3,0.4-0.5,0.7-0.7c0.3-0.2,0.6-0.2,0.9-0.2c0.5,0,0.9,0.2,1.3,0.5c0.3,0.4,0.5,0.8,0.5,1.3
			C54.6,59.9,54.5,60.2,54.4,60.5z"/>
		<path class="st14" d="M58.3,57.3c-0.2,0.1-0.4,0.3-0.6,0.6v-0.7h-0.6v4.6h0.6v-1.5c0-0.8,0-1.3,0.1-1.6c0.1-0.3,0.2-0.6,0.4-0.7
			c0.2-0.2,0.4-0.2,0.6-0.2c0.1,0,0.2,0,0.3,0.1l0.3-0.5c-0.2-0.1-0.4-0.2-0.5-0.2C58.7,57.1,58.5,57.2,58.3,57.3z"/>
		<polygon class="st14" points="64.3,57.3 63.5,57.3 61.3,59.1 61.3,55.5 60.7,55.5 60.7,61.8 61.3,61.8 61.3,59.8 63.6,61.8 
			64.5,61.8 61.8,59.4 		"/>
		<path class="st14" d="M69.9,58c-0.5-0.6-1.1-0.9-1.9-0.9c-0.8,0-1.4,0.3-1.8,0.9c-0.4,0.5-0.5,1-0.5,1.5c0,0.6,0.2,1.2,0.6,1.7
			c0.4,0.5,1,0.7,1.7,0.7c0.3,0,0.6-0.1,0.9-0.2c0.3-0.1,0.5-0.3,0.7-0.4c0.2-0.2,0.4-0.5,0.6-0.8l-0.5-0.3
			c-0.2,0.3-0.3,0.5-0.5,0.6c-0.2,0.1-0.3,0.2-0.6,0.3c-0.2,0.1-0.4,0.1-0.7,0.1c-0.5,0-0.9-0.2-1.2-0.5c-0.3-0.3-0.5-0.8-0.5-1.3
			h4.1C70.4,59,70.2,58.4,69.9,58z M66.4,59.1c0.1-0.4,0.3-0.7,0.5-0.9c0.3-0.3,0.7-0.4,1.2-0.4c0.3,0,0.5,0.1,0.8,0.2
			c0.2,0.1,0.4,0.3,0.6,0.5c0.1,0.2,0.3,0.4,0.3,0.8H66.4z"/>
		<polygon class="st14" points="73.5,55.6 72.9,55.6 72.9,57.3 72.1,57.3 72.1,57.8 72.9,57.8 72.9,61.8 73.5,61.8 73.5,57.8 
			74.4,57.8 74.4,57.3 73.5,57.3 		"/>
		<path class="st14" d="M81.2,56.5c0.4-0.2,0.9-0.4,1.4-0.4c0.5,0,0.9,0.1,1.2,0.3c0.4,0.2,0.7,0.4,1,0.8l0.5-0.4
			c-0.3-0.4-0.7-0.7-1.1-1c-0.5-0.2-1-0.3-1.6-0.3c-1,0-1.7,0.3-2.4,0.9c-0.6,0.6-1,1.4-1,2.3c0,0.9,0.3,1.6,0.8,2.2
			c0.6,0.7,1.5,1.1,2.6,1.1c0.6,0,1.1-0.1,1.5-0.3c0.5-0.2,0.8-0.5,1.2-0.9l-0.5-0.4c-0.6,0.7-1.3,1-2.2,1c-0.8,0-1.4-0.3-2-0.8
			c-0.5-0.5-0.8-1.1-0.8-1.9c0-0.5,0.1-0.9,0.3-1.3C80.4,57,80.7,56.7,81.2,56.5z"/>
		<path class="st14" d="M89.4,57.1c-0.7,0-1.3,0.3-1.8,0.8c-0.4,0.5-0.6,1-0.6,1.6c0,0.6,0.2,1.2,0.7,1.7c0.4,0.5,1,0.7,1.7,0.7
			c0.7,0,1.3-0.2,1.7-0.7c0.4-0.5,0.7-1,0.7-1.7c0-0.6-0.2-1.2-0.6-1.6C90.7,57.4,90.1,57.1,89.4,57.1z M90.9,60.5
			c-0.2,0.3-0.4,0.5-0.6,0.7c-0.3,0.2-0.6,0.2-0.9,0.2c-0.3,0-0.6-0.1-0.9-0.2c-0.3-0.2-0.5-0.4-0.6-0.7c-0.2-0.3-0.2-0.6-0.2-0.9
			c0-0.5,0.2-0.9,0.5-1.3s0.8-0.5,1.3-0.5c0.5,0,0.9,0.2,1.3,0.5c0.4,0.4,0.5,0.8,0.5,1.3C91.2,59.9,91.1,60.2,90.9,60.5z"/>
		<path class="st14" d="M96.9,57.4c-0.3-0.2-0.6-0.3-0.9-0.3c-0.3,0-0.6,0.1-0.9,0.2c-0.3,0.2-0.5,0.4-0.8,0.7v-0.8h-0.6v4.6h0.6
			v-1.7c0-0.6,0-1,0.1-1.2c0.1-0.3,0.3-0.6,0.6-0.9c0.3-0.2,0.6-0.4,1-0.4c0.3,0,0.6,0.1,0.8,0.2c0.2,0.2,0.3,0.4,0.4,0.7
			c0,0.2,0.1,0.5,0.1,1.1v2.2h0.6v-2.3c0-0.6-0.1-1.1-0.2-1.4C97.4,57.8,97.2,57.6,96.9,57.4z"/>
		<path class="st14" d="M103,57.4c-0.3-0.2-0.6-0.3-0.9-0.3c-0.3,0-0.6,0.1-0.9,0.2c-0.3,0.2-0.5,0.4-0.8,0.7v-0.8h-0.6v4.6h0.6
			v-1.7c0-0.6,0-1,0.1-1.2c0.1-0.3,0.3-0.6,0.6-0.9c0.3-0.2,0.6-0.4,1-0.4c0.3,0,0.6,0.1,0.8,0.2c0.2,0.2,0.3,0.4,0.4,0.7
			c0,0.2,0.1,0.5,0.1,1.1v2.2h0.6v-2.3c0-0.6-0.1-1.1-0.2-1.4C103.5,57.8,103.3,57.6,103,57.4z"/>
		<path class="st14" d="M109.9,58c-0.5-0.6-1.1-0.9-1.9-0.9c-0.8,0-1.4,0.3-1.8,0.9c-0.4,0.5-0.5,1-0.5,1.5c0,0.6,0.2,1.2,0.6,1.7
			c0.4,0.5,1,0.7,1.7,0.7c0.3,0,0.6-0.1,0.9-0.2c0.3-0.1,0.5-0.3,0.7-0.4c0.2-0.2,0.4-0.5,0.6-0.8l-0.5-0.3
			c-0.2,0.3-0.3,0.5-0.5,0.6c-0.2,0.1-0.3,0.2-0.6,0.3c-0.2,0.1-0.4,0.1-0.7,0.1c-0.5,0-0.9-0.2-1.2-0.5c-0.3-0.3-0.5-0.8-0.5-1.3
			h4.1C110.4,59,110.2,58.4,109.9,58z M106.4,59.1c0.1-0.4,0.3-0.7,0.5-0.9c0.3-0.3,0.7-0.4,1.2-0.4c0.3,0,0.5,0.1,0.8,0.2
			c0.2,0.1,0.4,0.3,0.6,0.5c0.1,0.2,0.3,0.4,0.3,0.8H106.4z"/>
		<path class="st14" d="M114.7,57.7c0.7,0,1.2,0.3,1.6,0.8l0.5-0.3c-0.1-0.2-0.3-0.4-0.5-0.6c-0.2-0.1-0.4-0.3-0.7-0.4
			c-0.3-0.1-0.6-0.1-0.9-0.1c-0.5,0-0.9,0.1-1.3,0.3c-0.4,0.2-0.7,0.5-0.9,0.9c-0.2,0.4-0.3,0.8-0.3,1.2c0,0.7,0.2,1.2,0.7,1.7
			c0.5,0.5,1.1,0.7,1.8,0.7c0.5,0,0.9-0.1,1.3-0.3c0.4-0.2,0.7-0.4,0.9-0.8l-0.5-0.3c-0.4,0.5-1,0.8-1.6,0.8c-0.4,0-0.7-0.1-1-0.2
			c-0.3-0.2-0.5-0.4-0.7-0.7c-0.2-0.3-0.3-0.6-0.3-0.9c0-0.5,0.2-0.9,0.6-1.3C113.7,57.9,114.1,57.7,114.7,57.7z"/>
		<polygon class="st14" points="119.9,55.6 119.3,55.6 119.3,57.3 118.5,57.3 118.5,57.8 119.3,57.8 119.3,61.8 119.9,61.8 
			119.9,57.8 120.8,57.8 120.8,57.3 119.9,57.3 		"/>
		<rect x="122.5" y="57.3" class="st14" width="0.6" height="4.6"/>
		<path class="st14" d="M127.3,57.1c-0.7,0-1.3,0.3-1.8,0.8c-0.4,0.5-0.6,1-0.6,1.6c0,0.6,0.2,1.2,0.7,1.7c0.4,0.5,1,0.7,1.7,0.7
			c0.7,0,1.3-0.2,1.7-0.7c0.4-0.5,0.7-1,0.7-1.7c0-0.6-0.2-1.2-0.6-1.6C128.6,57.4,128,57.1,127.3,57.1z M128.8,60.5
			c-0.2,0.3-0.4,0.5-0.6,0.7c-0.3,0.2-0.6,0.2-0.9,0.2c-0.3,0-0.6-0.1-0.9-0.2c-0.3-0.2-0.5-0.4-0.6-0.7c-0.2-0.3-0.2-0.6-0.2-0.9
			c0-0.5,0.2-0.9,0.5-1.3c0.4-0.4,0.8-0.5,1.3-0.5c0.5,0,0.9,0.2,1.3,0.5c0.4,0.4,0.5,0.8,0.5,1.3C129.1,59.9,129,60.2,128.8,60.5z"
			/>
		<path class="st14" d="M134.8,57.4c-0.3-0.2-0.6-0.3-0.9-0.3c-0.3,0-0.6,0.1-0.9,0.2c-0.3,0.2-0.5,0.4-0.8,0.7v-0.8h-0.6v4.6h0.6
			v-1.7c0-0.6,0-1,0.1-1.2c0.1-0.3,0.3-0.6,0.6-0.9c0.3-0.2,0.6-0.4,1-0.4c0.3,0,0.6,0.1,0.8,0.2c0.2,0.2,0.3,0.4,0.4,0.7
			c0,0.2,0.1,0.5,0.1,1.1v2.2h0.6v-2.3c0-0.6-0.1-1.1-0.2-1.4C135.3,57.8,135.1,57.6,134.8,57.4z"/>
	</g>
	<path d="M58.4,46.7c0-0.9-0.2-1.8-0.6-2.7c-0.4-0.9-0.9-1.6-1.7-2.1c0.5-0.5,1-1.2,1.3-1.9c0.3-0.7,0.4-1.5,0.4-2.3
		c0-0.7-0.1-1.4-0.4-2.1c-0.2-0.7-0.6-1.3-1-1.8c-0.3-0.3-0.6-0.6-0.9-0.9c-0.4-0.3-0.7-0.5-1.1-0.7c-0.4-0.2-0.8-0.3-1.2-0.4
		c-0.4-0.1-0.8-0.2-1.2-0.2H41.2v20.9h11.7c0.8,0,1.6-0.2,2.3-0.5c0.7-0.3,1.3-0.7,1.8-1.3c0.5-0.5,0.9-1.2,1.2-1.9
		C58.3,48.3,58.4,47.5,58.4,46.7z M47,36.4h3.3c0.5,0,0.9,0.2,1.3,0.5c0.3,0.4,0.5,0.8,0.5,1.3c0,0.5-0.2,0.9-0.5,1.3
		c-0.3,0.4-0.8,0.5-1.3,0.5H47V36.4z M51.8,47.3c-0.4,0.4-0.8,0.5-1.3,0.5H47v-3.7h3.5c0.5,0,0.9,0.2,1.3,0.5
		c0.4,0.4,0.5,0.8,0.5,1.3C52.3,46.5,52.2,47,51.8,47.3z"/>
	<path d="M83.4,46.5c0.6-1.4,0.9-2.8,0.9-4.3s-0.3-3-0.9-4.3c-0.6-1.4-1.4-2.5-2.4-3.5c-1-1-2.2-1.8-3.5-2.4
		c-1.4-0.6-2.8-0.9-4.3-0.9c-1.5,0-3,0.3-4.3,0.9c-1.4,0.6-2.5,1.4-3.5,2.4c-1,1-1.8,2.2-2.4,3.5c-0.6,1.3-0.9,2.8-0.9,4.3
		s0.3,3,0.9,4.3c0.6,1.4,1.4,2.5,2.4,3.5c1,1,2.2,1.8,3.5,2.4c1.4,0.6,2.8,0.9,4.3,0.9c1.5,0,3-0.3,4.3-0.9C78.9,51.8,80,51,81,50
		C82,49.1,82.8,47.9,83.4,46.5z M77.9,44.2c-0.3,0.6-0.6,1.2-1.1,1.7c-0.5,0.5-1,0.9-1.6,1.2c-0.6,0.3-1.3,0.4-2,0.4
		c-0.7,0-1.4-0.1-2-0.4c-0.6-0.3-1.2-0.7-1.6-1.2c-0.5-0.5-0.8-1.1-1.1-1.7c-0.3-0.6-0.4-1.3-0.4-2c0-0.7,0.1-1.4,0.4-2
		c0.3-0.6,0.6-1.2,1.1-1.7c0.5-0.5,1-0.9,1.6-1.2c0.6-0.3,1.3-0.4,2-0.4c0.7,0,1.4,0.1,2,0.4c0.6,0.3,1.2,0.7,1.6,1.2
		c0.5,0.5,0.8,1,1.1,1.7s0.4,1.3,0.4,2C78.3,42.9,78.1,43.6,77.9,44.2z"/>
	<path d="M130.3,32.1l-4.6,7.6l-4.6-7.6c-0.2-0.3-0.4-0.4-0.7-0.4h-5.3v20.9h5.9v-9.8l3.8,6.3c0.1,0.2,0.2,0.3,0.4,0.3
		c0.2,0.1,0.3,0.1,0.4,0.1c0.1,0,0.3,0,0.4-0.1c0.2-0.1,0.3-0.2,0.4-0.3l3.8-6.3v9.8h5.9V31.8h-5.3
		C130.6,31.8,130.4,31.9,130.3,32.1z"/>
	<polygon points="152.7,31.8 147.5,38.2 147.5,31.8 141.5,31.8 141.5,52.7 147.5,52.7 147.5,46.3 152.7,52.7 160,52.7 151.6,42.2 
		160,31.8 	"/>
	<polygon points="165.1,52.7 181.7,52.7 181.7,47.4 170.6,47.4 170.6,44.8 181.1,44.8 181.1,39.6 170.6,39.6 170.6,37 181.7,37 
		181.7,31.8 165.1,31.8 	"/>
	<polygon points="187.2,36.7 187.7,37.2 193.1,37.2 193.1,52.7 199,52.7 199,37.2 204.4,37.2 204.9,36.7 204.9,31.8 187.2,31.8 	"/>
	<g>
		<path class="st2" d="M115.7,23.9c0-0.2-0.3-0.5-0.5-0.5c-0.2,0-0.5,0.2-0.6,0.4c-0.1,0.2-0.1,0.4-0.1,0.7c-0.2,1.9-1.2,2.9-3,3.2
			c-0.8,0.1-1.6,0.1-2.3,0.1c-1.2,0-2.4,0-3.6,0c-2.2,0.2-3.3,1-3.9,3.1c0,0-0.1,0.1-0.1,0.1c-1.1-0.4-2.1-0.8-3.3-1.3
			c-0.2,0.4-0.3,0.9-0.5,1.3l8.3,3.2c0.2-0.4,0.3-0.8,0.5-1.3c-1.3-0.5-2.5-1-3.7-1.4c0.3-1.5,1-2.3,2.5-2.5
			c0.8-0.1,1.7-0.1,2.5-0.1c1.3,0,2.7,0,4-0.1C114.7,28.4,115.6,26.4,115.7,23.9z"/>
		<path class="st2" d="M93.6,32c-1.4,0.6-2.5,1.4-3.5,2.4c-1,1-1.8,2.2-2.4,3.5c-0.6,1.3-0.9,2.8-0.9,4.3s0.3,3,0.9,4.3
			c0.6,1.4,1.4,2.5,2.4,3.5c1,1,2.2,1.8,3.5,2.4c1.4,0.6,2.8,0.9,4.3,0.9c1.5,0,3-0.3,4.3-0.9c1.4-0.6,2.5-1.4,3.5-2.4
			c1-1,1.8-2.2,2.4-3.5c0.6-1.4,0.9-2.8,0.9-4.3s-0.3-3-0.9-4.3c-0.5-1.3-1.3-2.4-2.2-3.3l-8.9-3.4C95.9,31.3,94.7,31.6,93.6,32z"/>
		<path class="st2" d="M109.8,26.1c1-0.2,1.8-0.4,2.6-0.6c1.3-0.3,1.3-0.3,1.4-1.7c0-0.6,0.5-1.1,1.2-1.2c0.6-0.1,1.2,0.3,1.4,0.8
			c0.1,0.4,0,0.8,0,1.2c0,0.2,0,0.4,0.1,0.5c0.9,0.7,1.9,1.4,2.9,2.1c-0.1-0.8-0.3-1.6-0.6-2.3c-0.1-0.4,0-0.7,0.3-1
			c0.6-0.5,1.1-1,1.9-1.6c-1.1,0-2-0.1-2.9-0.1c0.1-0.9,0.3-1.7,0.4-2.7c-0.7,0.6-1.3,1.2-1.9,1.7c-0.5-1.4-1-2.8-1.4-4.1
			c0,0-0.1,0-0.1,0c-0.3,1.3-0.6,2.6-0.9,3.9c-1.1-0.3-2.1-0.7-3.1-1c0.3,0.8,0.7,1.6,1.1,2.3c0.2,0.4,0.2,0.6-0.1,1
			C111.2,24.1,110.6,25,109.8,26.1z"/>
	</g>
</g>
</svg>
