<?xml version="1.0" encoding="utf-8"?>
<!-- Generator: Adobe Illustrator 21.0.0, SVG Export Plug-In . SVG Version: 6.00 Build 0)  -->
<svg version="1.1" id="Capa_1" xmlns="http://www.w3.org/2000/svg" xmlns:xlink="http://www.w3.org/1999/xlink" x="0px" y="0px"
	 viewBox="0 0 58.5 62" style="enable-background:new 0 0 58.5 62;" xml:space="preserve">
<style type="text/css">
	.st0{fill:#F6F6F6;}
	.st1{fill:#FFFFFF;stroke:#706F6F;stroke-width:0.5;stroke-miterlimit:10;}
	.st2{fill:#F29100;}
	.st3{fill:#DADADA;}
	.st4{fill:#EA5B0C;}
	.st5{fill:#FFFFFF;}
	.st6{fill:#706F6F;}
	.st7{fill:#EDEDED;}
	.st8{fill:#F28321;}
	.st9{fill:#B2B2B2;}
	.st10{fill:url(#SVGID_1_);}
	.st11{opacity:0.4;fill:#EA5B0C;}
	.st12{fill:#606060;}
	.st13{fill:none;}
	.st14{fill:#808080;}
	.st15{fill:#FFFFFF;stroke:#000000;stroke-miterlimit:10;}
	.st16{fill:#9D9D9C;}
	.st17{fill:none;stroke:#1D1D1B;stroke-width:0.25;stroke-miterlimit:10;}
	.st18{fill:none;stroke:#FFFFFF;stroke-miterlimit:10;}
	.st19{fill:#DADADA;stroke:#878787;stroke-miterlimit:10;}
	.st20{fill:none;stroke:#C6C6C6;stroke-miterlimit:10;}
	.st21{fill:none;stroke:#B2B2B2;stroke-miterlimit:10;}
	.st22{clip-path:url(#SVGID_3_);}
	.st23{fill:#B4707B;}
	.st24{fill:url(#SVGID_4_);}
	.st25{fill:url(#SVGID_5_);}
	.st26{clip-path:url(#SVGID_7_);}
	.st27{fill:#312783;}
	.st28{clip-path:url(#SVGID_9_);}
	.st29{fill:#FCEA10;}
	.st30{fill:url(#SVGID_10_);}
	.st31{opacity:0.5;fill:#EA5B0C;}
	.st32{clip-path:url(#SVGID_12_);}
	.st33{fill:#3AAA35;}
	.st34{clip-path:url(#SVGID_14_);}
	.st35{clip-path:url(#SVGID_16_);}
	.st36{clip-path:url(#SVGID_18_);}
	.st37{clip-path:url(#SVGID_20_);}
	.st38{clip-path:url(#SVGID_22_);}
	.st39{clip-path:url(#SVGID_24_);}
	.st40{clip-path:url(#SVGID_26_);}
	.st41{clip-path:url(#SVGID_28_);}
	.st42{clip-path:url(#SVGID_30_);}
	.st43{clip-path:url(#SVGID_32_);}
	.st44{clip-path:url(#SVGID_34_);}
	.st45{clip-path:url(#SVGID_36_);}
	.st46{clip-path:url(#SVGID_38_);}
	.st47{clip-path:url(#SVGID_40_);}
	.st48{clip-path:url(#SVGID_42_);}
	.st49{clip-path:url(#SVGID_44_);}
	.st50{fill:url(#SVGID_47_);}
	.st51{clip-path:url(#SVGID_49_);}
	.st52{opacity:0.5;}
	.st53{fill:none;stroke:#F39200;stroke-miterlimit:10;}
	.st54{fill:none;stroke:url(#SVGID_50_);stroke-miterlimit:10;}
	.st55{fill:none;stroke:#F29100;stroke-miterlimit:10;}
	.st56{fill:#FFFFFF;stroke:#706F6F;stroke-miterlimit:10;}
	.st57{clip-path:url(#SVGID_52_);}
	.st58{clip-path:url(#SVGID_54_);}
	.st59{clip-path:url(#SVGID_56_);}
	.st60{clip-path:url(#SVGID_58_);}
	.st61{clip-path:url(#SVGID_60_);}
	.st62{clip-path:url(#SVGID_62_);}
	.st63{clip-path:url(#SVGID_64_);}
	.st64{clip-path:url(#SVGID_66_);}
	.st65{clip-path:url(#SVGID_68_);}
	.st66{clip-path:url(#SVGID_70_);}
	.st67{fill:#EDEDED;stroke:#878787;stroke-miterlimit:10;}
	.st68{clip-path:url(#SVGID_72_);}
	.st69{clip-path:url(#SVGID_74_);}
	.st70{fill:#95C11F;}
	.st71{fill:#009640;}
	.st72{fill:#E6007E;}
	.st73{fill:#7D4E24;}
	.st74{clip-path:url(#SVGID_76_);}
	.st75{clip-path:url(#SVGID_78_);}
	.st76{clip-path:url(#SVGID_80_);}
	.st77{clip-path:url(#SVGID_82_);}
	.st78{clip-path:url(#SVGID_84_);}
	.st79{clip-path:url(#SVGID_86_);}
	.st80{clip-path:url(#SVGID_88_);}
	.st81{clip-path:url(#SVGID_90_);}
	.st82{clip-path:url(#SVGID_92_);}
	.st83{fill:url(#SVGID_93_);}
	.st84{clip-path:url(#SVGID_95_);}
	.st85{clip-path:url(#SVGID_97_);}
	.st86{clip-path:url(#SVGID_99_);}
	.st87{clip-path:url(#SVGID_101_);}
	.st88{clip-path:url(#SVGID_103_);}
	.st89{clip-path:url(#SVGID_105_);}
	.st90{clip-path:url(#SVGID_107_);}
	.st91{clip-path:url(#SVGID_109_);}
	.st92{clip-path:url(#SVGID_111_);}
	.st93{clip-path:url(#SVGID_113_);}
	.st94{clip-path:url(#SVGID_115_);}
	.st95{clip-path:url(#SVGID_117_);}
	.st96{fill:url(#SVGID_118_);}
	.st97{fill:#CB3B29;}
	.st98{fill:none;stroke:#FFFFFF;stroke-width:0.25;stroke-miterlimit:10;}
	.st99{opacity:0.7;}
	.st100{fill:none;stroke:#1D1D1B;stroke-width:2;stroke-miterlimit:10;}
	.st101{fill:none;stroke:#000000;stroke-width:2;stroke-miterlimit:10;}
	.st102{fill:none;stroke:#000000;stroke-miterlimit:10;}
	.st103{fill:url(#SVGID_119_);}
	.st104{fill:url(#SVGID_120_);}
	.st105{fill:url(#SVGID_121_);}
	.st106{clip-path:url(#SVGID_123_);}
	.st107{clip-path:url(#SVGID_125_);}
	.st108{fill:#EA5B0C;stroke:#EA5B0C;stroke-miterlimit:10;}
	.st109{clip-path:url(#SVGID_127_);}
	.st110{clip-path:url(#SVGID_129_);}
	.st111{clip-path:url(#SVGID_131_);}
	.st112{clip-path:url(#SVGID_133_);}
	.st113{clip-path:url(#SVGID_135_);}
	.st114{clip-path:url(#SVGID_137_);}
	.st115{fill:#878787;}
	.st116{clip-path:url(#SVGID_139_);}
	.st117{clip-path:url(#SVGID_141_);}
	.st118{clip-path:url(#SVGID_143_);}
	.st119{clip-path:url(#SVGID_145_);}
	.st120{clip-path:url(#SVGID_147_);}
	.st121{clip-path:url(#SVGID_149_);}
	.st122{clip-path:url(#SVGID_155_);}
	.st123{fill:#FFFFFF;stroke:#FFFFFF;stroke-miterlimit:10;}
	.st124{fill:#535353;}
	.st125{fill:#F9B233;}
	.st126{fill:none;stroke:#F9B233;stroke-miterlimit:10;}
	.st127{clip-path:url(#SVGID_157_);}
	.st128{clip-path:url(#SVGID_159_);}
	.st129{clip-path:url(#SVGID_161_);}
	.st130{clip-path:url(#SVGID_163_);}
	.st131{clip-path:url(#SVGID_165_);}
	.st132{clip-path:url(#SVGID_167_);}
	.st133{clip-path:url(#SVGID_169_);}
	.st134{clip-path:url(#SVGID_171_);}
	.st135{fill:url(#SVGID_172_);}
	.st136{clip-path:url(#SVGID_178_);}
	.st137{clip-path:url(#SVGID_182_);}
	.st138{fill:url(#SVGID_183_);}
	.st139{fill:url(#SVGID_184_);}
	.st140{stroke:#000000;stroke-miterlimit:10;}
	.st141{clip-path:url(#SVGID_186_);}
	.st142{clip-path:url(#SVGID_188_);}
	.st143{clip-path:url(#SVGID_190_);}
	.st144{clip-path:url(#SVGID_192_);}
	.st145{clip-path:url(#SVGID_194_);}
	.st146{clip-path:url(#SVGID_196_);}
	.st147{clip-path:url(#SVGID_198_);}
	.st148{clip-path:url(#SVGID_200_);}
	.st149{clip-path:url(#SVGID_202_);}
	.st150{clip-path:url(#SVGID_204_);}
	.st151{clip-path:url(#SVGID_206_);}
	.st152{clip-path:url(#SVGID_208_);}
	.st153{fill:#F39200;}
	.st154{fill:none;stroke:url(#SVGID_209_);stroke-miterlimit:10;}
	.st155{fill:#FFFFFF;stroke:#9D9D9C;stroke-width:0.75;stroke-miterlimit:10;}
	.st156{fill:#575756;}
	.st157{fill:none;stroke:#EA5B0C;stroke-width:0.75;stroke-miterlimit:10;}
	.st158{fill:#F29100;stroke:#F29100;stroke-miterlimit:10;}
</style>
<path class="st5" d="M31.1,12.5c0.5,0.1,0.9,0.2,1.4,0.3c3.1,0.8,5.2,2.8,6.3,5.8c1.7,4.9-1.2,10.3-6.3,11.5c-3,0.7-5.8,0.1-8.1-2
	c-2.3-2.1-3.3-4.7-2.9-7.7c0.2-2.1,1.2-3.9,2.7-5.4c1.4-1.3,3.1-2.1,5-2.4c0.1,0,0.3-0.1,0.4-0.1C30,12.5,30.5,12.5,31.1,12.5z"/>
<g>
	<path class="st5" d="M41.8,10.5c0-0.1-0.1-0.3-0.2-0.3c-0.1,0-0.3,0.1-0.3,0.2c-0.1,0.1,0,0.2-0.1,0.3c-0.2,0.9-0.7,1.4-1.6,1.4
		c-0.4,0-0.8,0-1.1-0.1c-0.6,0-1.2-0.1-1.7-0.2c-1.1,0-1.7,0.3-2.1,1.3c0,0,0,0-0.1,0.1c-0.5-0.3-1-0.5-1.6-0.8
		c-0.1,0.2-0.2,0.4-0.3,0.6l3.9,2c0.1-0.2,0.2-0.4,0.3-0.6c-0.6-0.3-1.2-0.6-1.7-0.9c0.2-0.7,0.6-1.1,1.3-1.1c0.4,0,0.8,0,1.2,0.1
		c0.7,0,1.3,0.2,2,0.1C41.1,12.7,41.6,11.7,41.8,10.5z"/>
	<path class="st5" d="M38.8,11.3c0.5-0.1,0.9-0.1,1.3-0.2c0.7-0.1,0.7-0.1,0.8-0.8c0.1-0.3,0.3-0.5,0.6-0.5c0.3,0,0.6,0.2,0.6,0.5
		c0,0.2,0,0.4-0.1,0.6c0,0.1,0,0.2,0,0.2c0.4,0.4,0.9,0.8,1.3,1.2c0-0.4-0.1-0.8-0.2-1.2c-0.1-0.2,0-0.3,0.2-0.5
		c0.3-0.2,0.6-0.4,1-0.7c-0.5-0.1-1-0.1-1.4-0.2c0.1-0.4,0.2-0.8,0.3-1.3c-0.4,0.3-0.7,0.5-1,0.8c-0.2-0.7-0.3-1.4-0.5-2.1
		c0,0,0,0-0.1,0c-0.2,0.6-0.4,1.2-0.6,1.9c-0.5-0.2-1-0.4-1.4-0.6c0.1,0.4,0.2,0.8,0.4,1.2c0.1,0.2,0.1,0.3-0.1,0.5
		C39.6,10.4,39.2,10.8,38.8,11.3z"/>
</g>
<path class="st5" d="M29.4,54.9c-0.2,0-0.4-0.1-0.7-0.1c-3.2-0.2-6.3-0.7-9.4-1.4c-1.4-0.3-2.7-0.8-4.1-1.1C15,52.2,15,52,15,51.8
	c0-2.3,0-4.6,0-6.8c0-1.2,0-2.5,0.1-3.7c0.3-2.5,1.3-4.6,3-6.4c1.8-1.9,4.1-3.1,6.8-3.5c0.6-0.1,1.1-0.1,1.7-0.1c2.4,0,4.9,0,7.3,0
	c2.4,0,4.6,0.6,6.5,1.9c1.7,1.2,3.1,2.7,4,4.6c0.8,1.6,1.1,3.3,1.1,5.1c0,2.9,0,5.8,0,8.8c0,0.2-0.1,0.4-0.3,0.5
	c-1.6,0.8-3.3,1.3-5.1,1.7c-2.2,0.5-4.5,0.8-6.7,0.9c-0.1,0-0.2,0-0.4,0.1C31.8,54.9,30.6,54.9,29.4,54.9z"/>
</svg>
